<?xml version="1.0" standalone="no"?>
<!DOCTYPE svg PUBLIC "-//W3C//DTD SVG 20010904//EN"
 "http://www.w3.org/TR/2001/REC-SVG-20010904/DTD/svg10.dtd">
<svg version="1.0" xmlns="http://www.w3.org/2000/svg"
 width="900.000000pt" height="1080.000000pt" viewBox="0 0 900.000000 1080.000000"
 preserveAspectRatio="xMidYMid meet">
<metadata>
Created by potrace 1.10, written by Peter Selinger 2001-2011
</metadata>
<g transform="translate(0.000000,1080.000000) scale(0.100000,-0.100000)"
fill="#000000" stroke="none">
<path d="M5090 10717 c0 -22 54 -31 143 -22 39 3 117 10 172 14 89 7 93 8 35
9 -36 1 -129 5 -207 9 -128 5 -143 4 -143 -10z"/>
<path d="M3308 10713 c23 -2 61 -2 85 0 23 2 4 4 -43 4 -47 0 -66 -2 -42 -4z"/>
<path d="M2952 10680 c-87 -21 -108 -37 -115 -93 -4 -23 -9 -54 -13 -68 -4
-20 -1 -28 12 -33 30 -11 376 -8 387 3 8 8 6 22 -6 46 -21 44 -22 95 -2 121
30 40 21 44 -87 43 -61 -1 -133 -8 -176 -19z"/>
<path d="M5550 10686 c0 -8 5 -18 10 -21 6 -3 10 -35 10 -70 0 -35 -4 -67 -10
-70 -5 -3 -10 -15 -10 -26 0 -18 9 -19 199 -19 187 0 200 1 206 19 3 12 -4 33
-19 56 -21 30 -23 40 -13 56 18 28 -6 45 -93 69 -94 25 -280 29 -280 6z"/>
<path d="M3570 10649 c-80 -4 -168 -7 -197 -8 -65 -1 -80 -21 -58 -74 8 -20
20 -39 27 -44 37 -23 219 -27 1136 -27 1094 -1 1002 -8 1002 70 0 27 -6 47
-17 55 -13 11 -92 15 -372 20 -652 10 -1374 14 -1521 8z"/>
<path d="M2830 10405 c-7 -8 -12 -50 -12 -106 -1 -76 2 -94 16 -104 13 -10 98
-12 374 -8 196 3 364 9 372 13 26 13 980 21 1305 10 682 -22 1039 -28 1057
-19 15 8 18 24 18 107 0 63 -4 102 -12 110 -9 9 -369 12 -1559 12 -1340 0
-1548 -2 -1559 -15z"/>
<path d="M7138 10061 c-129 -10 -119 33 -116 -478 3 -426 4 -438 23 -442 10
-2 33 3 50 11 54 27 128 47 195 54 36 4 75 11 88 15 l22 9 0 350 0 351 -33 -6
c-45 -9 -79 28 -87 93 -6 54 -4 53 -142 43z"/>
<path d="M1620 10024 c0 -39 -15 -59 -74 -98 l-54 -36 -7 -82 c-3 -46 -5 -193
-3 -328 l3 -245 40 -7 c22 -4 66 -11 97 -17 59 -9 143 -37 165 -53 7 -5 22 -8
35 -6 l23 3 3 438 2 437 -26 10 c-14 6 -66 10 -115 10 -89 0 -89 0 -89 -26z"/>
<path d="M4080 10020 c0 -6 38 -10 95 -10 57 0 95 4 95 10 0 6 -38 10 -95 10
-57 0 -95 -4 -95 -10z"/>
<path d="M4505 10020 c3 -6 50 -10 106 -10 64 0 98 4 94 10 -3 6 -50 10 -106
10 -64 0 -98 -4 -94 -10z"/>
<path d="M6947 9999 c-8 -13 -18 -35 -22 -48 -4 -13 -19 -35 -32 -47 -21 -19
-24 -29 -18 -51 5 -16 10 -119 12 -231 4 -201 4 -202 -21 -245 -24 -40 -25
-50 -26 -210 -1 -93 0 -170 3 -173 5 -5 83 50 115 82 l24 23 -1 453 c-1 249
-6 457 -11 462 -4 4 -15 -2 -23 -15z"/>
<path d="M3380 9998 c-285 -13 -425 -23 -437 -31 -35 -22 7 -193 54 -224 19
-13 45 -15 131 -11 100 5 140 13 281 56 54 16 151 85 151 108 0 6 11 31 24 55
28 49 26 60 -12 57 -15 -1 -101 -5 -192 -10z"/>
<path d="M5180 10001 c0 -20 61 -122 91 -152 61 -62 258 -117 425 -118 75 -1
93 9 124 68 12 24 43 142 38 146 -49 34 -56 35 -159 35 -58 0 -119 4 -135 9
-31 10 -384 21 -384 12z"/>
<path d="M1917 9993 c-4 -3 -7 -206 -7 -451 l0 -444 48 -43 c26 -25 53 -44 60
-45 9 0 12 42 12 177 0 154 -2 179 -17 196 -16 17 -18 46 -21 221 -2 137 0
213 9 238 11 35 10 38 -25 81 -20 24 -36 51 -36 61 0 16 -11 21 -23 9z"/>
<path d="M3835 9900 c-3 -5 -1 -10 4 -10 22 0 10 -18 -16 -25 -27 -6 -27 -7
-9 -21 37 -27 113 -7 135 35 9 16 6 19 -27 25 -53 9 -80 7 -87 -4z"/>
<path d="M4195 9900 c-14 -6 1 -9 48 -9 43 -1 66 3 62 9 -7 12 -82 12 -110 0z"/>
<path d="M4472 9901 c-8 -5 85 -11 221 -16 227 -7 264 -4 252 16 -8 11 -455
12 -473 0z"/>
<path d="M4185 9630 c-11 -5 -63 -9 -115 -10 -52 -1 -129 -6 -170 -11 -41 -5
-115 -14 -165 -19 -49 -5 -100 -14 -113 -20 -13 -5 -38 -10 -56 -10 -61 0 -70
-16 -79 -142 -8 -120 -22 -572 -28 -872 -2 -123 0 -181 8 -183 6 -2 53 1 104
7 208 25 249 30 369 39 165 13 845 13 985 0 212 -20 271 -27 344 -38 40 -6 77
-8 82 -5 12 7 11 67 -2 124 -8 41 -24 139 -49 320 -5 36 -14 85 -19 110 -15
68 -32 195 -40 290 -4 47 -11 92 -16 100 -5 8 -13 40 -17 70 -12 98 -30 175
-43 189 -7 7 -42 15 -81 18 -38 2 -85 8 -104 14 -82 23 -752 48 -795 29z"/>
<path d="M5246 9542 c-4 -6 -1 -30 5 -54 6 -24 13 -69 15 -101 2 -31 8 -74 14
-95 7 -20 18 -73 26 -117 7 -44 20 -114 29 -155 8 -41 22 -113 30 -160 8 -47
19 -105 24 -130 4 -25 14 -74 20 -110 7 -36 19 -93 27 -127 8 -34 14 -76 14
-95 0 -18 4 -38 8 -43 10 -14 216 -115 235 -115 20 0 27 22 27 81 0 28 4 58 9
67 5 9 12 66 15 126 3 60 11 125 16 145 6 20 15 81 20 136 21 220 37 352 43
363 7 9 11 45 22 178 2 28 9 62 14 76 17 46 -2 57 -114 61 -106 5 -306 30
-325 42 -6 4 -35 11 -63 15 -29 5 -64 12 -78 15 -15 4 -29 2 -33 -3z"/>
<path d="M3377 9514 c-8 -8 -122 -32 -212 -45 -58 -9 -151 -15 -267 -18 -20
-1 -23 -28 -8 -75 5 -17 17 -67 26 -111 9 -44 22 -100 29 -125 7 -25 20 -81
29 -125 9 -44 21 -94 26 -111 10 -29 17 -62 41 -174 7 -30 21 -84 32 -120 10
-36 25 -99 33 -140 26 -149 64 -290 79 -290 5 0 39 27 74 60 35 33 68 60 73
60 28 0 52 207 49 415 -1 39 4 86 10 105 6 19 17 143 24 275 7 132 16 274 19
315 3 41 3 83 0 93 -5 16 -44 24 -57 11z"/>
<path d="M6712 9245 c-34 -25 -66 -45 -70 -45 -20 0 -40 -39 -50 -95 -14 -76
-29 -146 -48 -211 -8 -28 -14 -68 -14 -88 0 -21 -4 -45 -9 -55 -5 -9 -14 -46
-20 -82 -22 -138 -39 -235 -45 -249 -3 -8 -10 -49 -16 -90 -5 -41 -19 -129
-31 -195 -11 -66 -27 -172 -35 -235 -20 -175 -24 -192 -51 -227 -46 -62 -67
-41 -64 61 2 90 -7 143 -25 150 -30 12 -84 -26 -109 -78 -26 -53 -32 -63 -77
-134 -16 -24 -28 -49 -28 -56 0 -6 -5 -17 -11 -23 -6 -6 -16 -20 -23 -31 -76
-135 -105 -188 -139 -252 -21 -41 -43 -80 -49 -87 -13 -16 -79 -144 -208 -403
-61 -124 -118 -238 -126 -253 -13 -26 -12 -32 12 -73 29 -49 22 -74 -21 -74
-18 0 -26 -10 -39 -47 -53 -152 -76 -245 -81 -323 -4 -47 -10 -101 -16 -120
-20 -71 -32 -407 -31 -870 0 -515 15 -1019 32 -1050 5 -10 10 -37 10 -60 0
-39 16 -126 41 -223 11 -40 33 -57 52 -38 6 6 21 11 34 11 19 0 51 -58 254
-463 127 -254 246 -496 264 -538 38 -87 75 -226 75 -279 0 -20 7 -60 15 -88
10 -31 20 -128 26 -240 14 -279 23 -400 31 -407 4 -4 22 1 40 12 l33 19 6 765
c3 420 9 774 13 785 6 17 1 26 -24 44 l-31 22 20 22 c22 23 28 70 11 81 -6 3
-13 -1 -17 -10 -5 -15 -16 -16 -72 -10 -128 13 -210 46 -274 110 -76 77 -107
112 -107 123 0 5 -7 15 -15 22 -8 7 -15 19 -15 27 0 8 -12 30 -26 48 -14 19
-24 42 -22 52 4 24 37 30 238 43 91 6 184 13 208 16 63 9 109 -2 116 -28 3
-12 7 -20 10 -17 3 3 8 190 12 417 5 300 3 412 -5 412 -7 0 -11 -21 -11 -52
-3 -306 -13 -654 -19 -660 -7 -9 -138 -24 -336 -39 -71 -6 -153 -13 -181 -16
-47 -4 -54 -2 -78 24 -14 15 -26 36 -26 46 0 11 -6 33 -14 50 -7 18 -21 73
-30 122 -39 212 -46 305 -46 616 0 284 1 309 18 317 9 5 59 12 111 16 52 3 99
10 105 15 6 4 56 11 111 15 55 4 114 11 130 16 48 14 257 32 267 22 4 -4 9
-81 9 -170 1 -90 5 -165 9 -167 12 -7 22 459 10 489 -7 18 -7 34 0 46 11 21 9
280 -2 280 -4 0 -8 -30 -8 -67 0 -77 -6 -92 -41 -98 -13 -3 -35 -9 -49 -13
-14 -5 -52 -17 -85 -27 -33 -9 -78 -23 -100 -30 -22 -6 -67 -20 -100 -30 -33
-9 -91 -28 -130 -42 -38 -13 -97 -31 -130 -39 -33 -8 -71 -17 -84 -21 -14 -3
-26 -1 -31 7 -7 12 -6 129 5 490 10 304 36 411 148 615 21 39 43 79 48 90 5
11 15 29 21 40 7 10 24 37 38 60 13 22 30 49 37 60 7 11 15 27 19 35 4 8 28
44 53 80 24 36 67 98 94 138 48 70 52 73 81 67 17 -3 61 -8 97 -12 74 -6 123
11 134 48 11 35 20 12 30 -84 10 -85 12 -66 19 246 7 272 6 343 -5 363 -11 21
-10 27 4 41 20 20 73 40 151 58 90 20 90 20 98 213 12 288 33 536 46 560 7 12
20 22 29 22 13 0 14 -9 9 -62 -11 -106 -29 -339 -42 -562 -9 -144 -31 -131
223 -131 155 0 250 -5 328 -18 61 -9 137 -21 170 -26 33 -5 82 -17 109 -26 40
-15 50 -15 57 -4 12 19 11 122 -1 153 -8 22 -16 26 -53 26 -24 0 -66 7 -93 15
-27 8 -62 15 -79 15 -16 1 -41 7 -55 15 -14 8 -33 14 -43 15 -10 0 -53 17 -95
37 -61 29 -96 56 -167 128 -148 147 -158 165 -204 341 -14 54 -14 320 0 381
20 87 42 147 72 190 l29 43 -2 178 c-1 219 -2 221 -88 157z"/>
<path d="M2098 9093 c-3 -174 -3 -179 21 -228 61 -120 83 -210 88 -350 4 -131
6 -139 31 -126 39 21 62 -24 62 -123 0 -41 4 -85 10 -98 5 -13 14 -120 20
-238 13 -289 16 -307 49 -324 14 -8 42 -17 61 -21 19 -4 54 -20 77 -35 23 -16
44 -26 47 -22 13 13 5 142 -11 174 -9 18 -20 40 -24 49 -4 9 -11 57 -14 105
-4 49 -11 105 -17 124 -5 19 -16 78 -23 130 -8 52 -21 138 -30 190 -8 52 -19
124 -25 160 -5 36 -14 81 -19 100 -5 19 -14 64 -20 100 -22 146 -88 449 -106
493 -10 24 -133 117 -156 117 -15 0 -17 -16 -21 -177z"/>
<path d="M1285 9110 c-113 -14 -227 -66 -322 -147 -60 -52 -135 -147 -159
-203 -3 -8 -12 -28 -19 -45 -29 -66 -44 -144 -46 -235 -5 -270 179 -527 436
-612 188 -62 369 -40 554 67 80 46 241 236 241 285 0 9 4 20 9 25 14 15 42
133 48 205 4 44 0 85 -11 128 -9 35 -16 70 -16 78 0 23 -61 146 -93 189 -71
94 -202 205 -242 205 -8 0 -16 4 -19 9 -3 4 -34 17 -68 29 -71 23 -204 33
-293 22z m195 -209 c42 -8 78 -22 142 -57 30 -17 126 -118 139 -148 5 -12 13
-28 18 -36 23 -39 41 -122 41 -185 0 -139 -75 -283 -184 -353 -65 -42 -105
-62 -122 -62 -8 0 -38 -7 -66 -16 -52 -17 -54 -17 -193 14 -22 5 -51 15 -65
23 -73 41 -162 122 -181 164 -5 11 -13 27 -18 35 -33 57 -41 95 -41 203 0 84
4 118 15 133 8 10 15 26 15 35 1 44 168 219 209 219 5 0 22 6 38 14 64 33 147
38 253 17z"/>
<path d="M1308 8853 c-20 -2 -42 -11 -48 -19 -7 -8 -22 -14 -34 -14 -12 0 -29
-8 -38 -17 -30 -32 -44 -40 -82 -47 -40 -8 -45 -29 -8 -34 11 -2 26 -10 32
-18 7 -8 20 -14 29 -14 9 0 30 -7 46 -16 17 -8 50 -18 75 -21 38 -4 48 -2 66
18 31 36 57 131 44 163 -6 16 -16 25 -27 24 -10 -1 -35 -3 -55 -5z"/>
<path d="M1528 8844 c-3 -5 -9 -48 -13 -96 -6 -74 -4 -93 13 -131 17 -37 25
-45 55 -51 44 -8 115 2 145 20 30 19 32 68 2 59 -13 -4 -20 -2 -20 8 0 11 -59
75 -130 142 -5 6 -18 21 -28 34 -11 13 -21 20 -24 15z"/>
<path d="M998 8585 c-11 -11 4 -180 18 -202 8 -12 14 -40 14 -62 0 -22 5 -43
11 -47 19 -11 115 101 133 155 9 27 14 55 11 63 -9 22 -106 88 -130 88 -13 0
-30 2 -37 5 -8 3 -17 3 -20 0z"/>
<path d="M1675 8426 c-33 -12 -78 -35 -98 -51 -34 -27 -37 -33 -32 -65 8 -43
43 -120 56 -120 5 0 9 -7 9 -15 0 -8 6 -15 13 -15 15 0 40 38 32 50 -3 5 -1
15 5 22 40 48 50 63 50 73 0 7 7 15 15 19 10 3 15 19 15 46 0 33 3 40 19 40
10 0 21 6 24 14 13 33 -22 33 -108 2z"/>
<path d="M1246 8259 c-50 -33 -86 -80 -86 -112 0 -15 6 -17 36 -11 26 5 38 2
47 -9 9 -12 34 -17 95 -20 45 -2 85 -7 89 -10 14 -14 33 -6 33 14 0 22 -77
139 -91 139 -5 0 -9 7 -9 15 0 8 -9 15 -19 15 -11 0 -26 2 -33 5 -8 3 -36 -9
-62 -26z"/>
<path d="M7410 9110 c-180 -22 -357 -141 -456 -304 -19 -31 -34 -63 -34 -70 0
-6 -5 -17 -10 -22 -18 -18 -50 -172 -50 -237 0 -85 48 -269 78 -299 7 -7 12
-16 12 -21 0 -17 91 -126 142 -171 86 -76 210 -129 338 -146 70 -10 102 -9
177 4 50 8 100 19 110 24 10 5 48 24 85 42 37 18 97 59 132 92 64 58 156 182
156 210 0 8 4 18 10 24 5 5 19 43 30 84 44 167 12 357 -85 504 -84 128 -210
222 -360 269 -62 19 -189 27 -275 17z m164 -201 c34 -6 74 -17 89 -25 16 -8
33 -14 39 -14 17 0 123 -87 149 -122 25 -34 44 -71 74 -144 22 -53 16 -218 -9
-284 -46 -118 -180 -241 -286 -264 -14 -2 -46 -10 -72 -16 -96 -23 -265 33
-351 116 -40 40 -95 122 -117 174 -22 55 -25 225 -5 274 36 86 52 115 86 152
43 48 122 114 137 114 6 0 23 6 39 14 26 14 103 31 147 35 11 0 47 -4 80 -10z"/>
<path d="M7518 8853 c-26 -31 -28 -53 -11 -105 22 -67 43 -88 91 -88 42 1 126
27 161 52 13 9 30 14 37 11 8 -3 14 1 14 10 0 10 -13 18 -34 22 -18 4 -48 20
-65 36 -18 16 -40 29 -50 29 -10 0 -24 7 -31 15 -7 8 -27 15 -44 15 -18 0 -37
5 -42 10 -7 7 -15 5 -26 -7z"/>
<path d="M7263 8755 c-46 -45 -83 -87 -83 -94 0 -6 -9 -11 -20 -11 -28 0 -26
-31 4 -59 20 -19 32 -22 96 -19 72 3 74 4 92 36 15 28 18 51 16 130 -2 53 -7
96 -13 98 -5 1 -47 -35 -92 -81z"/>
<path d="M7795 8564 c-35 -18 -73 -52 -86 -76 -14 -25 29 -111 86 -173 51 -56
65 -52 65 18 0 21 6 48 14 60 8 12 16 56 18 99 l5 76 -30 6 c-39 8 -38 8 -72
-10z"/>
<path d="M7110 8439 c0 -6 9 -22 20 -36 11 -14 20 -36 20 -49 0 -12 7 -29 15
-38 8 -8 15 -18 15 -21 0 -4 13 -24 29 -44 15 -20 26 -41 24 -47 -2 -6 3 -17
12 -24 13 -10 19 -9 39 12 14 13 28 36 31 51 4 15 11 30 16 33 14 9 10 58 -7
82 -16 24 -67 50 -148 76 -59 19 -66 20 -66 5z"/>
<path d="M7536 8259 c-35 -28 -106 -124 -106 -143 0 -13 14 -15 98 -10 67 4
102 10 114 21 12 11 27 14 49 9 30 -6 30 -5 24 27 -9 39 -19 52 -69 89 -47 33
-74 35 -110 7z"/>
<path d="M4265 8370 c-11 -5 -83 -9 -160 -10 -77 -1 -183 -6 -235 -11 -52 -4
-149 -13 -215 -19 -66 -6 -139 -18 -163 -26 -24 -8 -48 -12 -53 -9 -11 7 -108
-67 -168 -128 -55 -57 -51 -77 16 -78 26 -1 113 -5 193 -10 210 -13 1655 -14
1921 -1 173 8 233 14 258 26 36 19 42 54 14 78 -37 32 -155 88 -186 88 -18 0
-41 6 -52 14 -11 7 -40 16 -65 19 -25 3 -88 11 -140 17 -52 6 -117 16 -145 21
-104 21 -784 45 -820 29z"/>
<path d="M2197 8320 c-3 -8 -15 -49 -27 -90 -35 -116 -73 -178 -160 -265 -97
-97 -169 -141 -300 -185 -83 -27 -178 -50 -211 -50 -16 0 -45 -7 -64 -14 l-35
-15 0 -71 c0 -82 10 -92 68 -67 117 50 645 97 740 66 55 -18 62 -4 62 124 0
60 -4 126 -10 146 -5 20 -12 116 -16 214 -5 151 -9 181 -24 200 -15 18 -19 19
-23 7z"/>
<path d="M3214 8025 c-4 -10 -2 -38 4 -62 7 -24 12 -52 12 -63 0 -11 7 -41 16
-67 9 -26 16 -61 16 -77 0 -16 6 -46 14 -65 15 -33 24 -79 43 -206 9 -54 25
-123 47 -194 8 -25 14 -54 14 -67 0 -12 6 -27 14 -33 8 -7 16 -33 19 -59 2
-26 12 -67 22 -92 9 -25 21 -68 25 -96 5 -28 20 -75 34 -104 14 -30 26 -64 26
-78 0 -13 5 -33 12 -45 6 -12 14 -38 17 -57 7 -39 -11 -33 183 -60 125 -17
1492 -10 1510 8 6 6 19 12 27 12 9 0 33 21 54 46 27 34 37 56 37 83 0 20 7 45
15 55 8 11 15 26 15 34 0 8 6 28 14 45 8 18 22 59 31 92 9 33 23 80 31 104 8
24 17 74 20 110 4 36 13 78 20 93 8 15 14 44 14 66 0 21 11 60 25 88 15 30 25
66 25 94 0 25 7 54 15 64 8 11 15 30 15 43 0 24 17 104 46 217 16 60 12 149
-8 173 -12 15 -295 8 -343 -9 -24 -9 -330 -16 -870 -20 -151 -2 -550 14 -565
22 -12 7 -27 7 -45 0 -16 -6 -55 -7 -103 -1 -44 4 -87 4 -101 -1 -13 -4 -40
-5 -60 -2 -20 4 -58 8 -86 9 -27 1 -94 5 -147 10 -89 7 -98 6 -104 -10z"/>
<path d="M2636 7993 c-11 -11 -6 -23 9 -23 8 0 15 4 15 9 0 13 -16 22 -24 14z"/>
<path d="M1267 7693 c-3 -5 -8 -524 -12 -1155 l-7 -1148 30 0 c67 0 62 -85 62
1155 0 618 -3 1130 -6 1139 -6 16 -59 23 -67 9z"/>
<path d="M1935 7570 c-11 -5 -49 -9 -85 -10 -67 -2 -116 -8 -257 -33 -95 -17
-151 -35 -176 -56 -16 -13 -17 -72 -15 -1029 l3 -1015 460 0 c451 1 460 2 473
22 12 18 11 23 -10 43 -13 13 -30 39 -38 58 -7 19 -22 46 -32 59 -15 19 -18
42 -18 122 0 54 4 101 10 104 5 3 24 35 40 69 l31 64 -6 263 c-3 145 -9 404
-13 574 -5 171 -9 406 -10 523 -2 241 8 217 -95 241 -55 13 -233 14 -262 1z"/>
<path d="M6653 7573 c-23 -2 -46 -10 -52 -17 -6 -7 -12 -117 -15 -287 -3 -151
-10 -505 -16 -787 -11 -466 -11 -515 4 -537 9 -13 16 -30 16 -38 0 -7 14 -26
30 -42 29 -28 30 -31 30 -125 0 -94 -1 -97 -30 -125 -16 -16 -30 -38 -30 -50
0 -12 -11 -36 -25 -55 -14 -19 -25 -46 -25 -61 0 -43 21 -52 97 -44 88 10 715
10 771 0 34 -6 47 -4 62 10 20 18 20 39 20 1031 l0 1013 -34 26 c-34 26 -65
34 -231 61 -184 30 -418 41 -572 27z"/>
<path d="M2629 7548 c-1 -7 0 -23 0 -34 2 -14 -10 -31 -30 -47 -30 -23 -31
-27 -20 -57 7 -20 11 -106 11 -219 0 -184 0 -187 26 -224 14 -21 37 -42 50
-48 34 -12 126 -12 160 2 35 13 70 5 77 -18 4 -10 36 -58 72 -108 36 -49 69
-99 75 -110 6 -11 39 -65 74 -120 56 -87 137 -240 181 -343 8 -18 21 -47 29
-65 8 -17 17 -52 21 -77 3 -24 11 -50 16 -57 15 -18 34 -762 20 -776 -8 -8
-22 -7 -49 3 -20 7 -55 17 -77 21 -22 4 -71 19 -109 33 -38 14 -79 26 -90 26
-12 0 -57 14 -99 30 -43 16 -90 30 -104 30 -14 0 -37 6 -51 14 -15 8 -58 24
-96 36 -95 29 -94 30 -59 -138 8 -40 12 -88 9 -106 -9 -49 9 -58 142 -71 65
-6 124 -14 132 -17 8 -3 58 -11 110 -16 253 -29 331 -41 345 -52 13 -11 15
-58 15 -308 0 -163 -4 -321 -10 -351 -5 -31 -14 -94 -19 -141 -9 -80 -20 -132
-53 -258 -18 -69 -59 -116 -92 -108 -20 5 -242 22 -406 32 -25 1 -65 6 -90 11
l-45 9 -6 159 c-8 209 -10 221 -20 165 -4 -25 -5 -160 -1 -300 6 -221 8 -245
15 -178 8 66 12 77 31 82 32 9 92 7 119 -3 13 -5 101 -13 196 -17 139 -5 176
-10 193 -24 19 -15 19 -19 7 -42 -8 -15 -25 -48 -39 -75 -13 -26 -36 -62 -51
-80 -15 -17 -28 -35 -30 -40 -8 -18 -106 -96 -139 -110 -85 -36 -242 -63 -254
-44 -13 20 -26 11 -26 -18 0 -16 7 -34 15 -41 22 -18 18 -39 -10 -52 -28 -13
-42 -49 -29 -75 5 -10 11 -358 14 -773 3 -415 8 -762 13 -770 4 -9 17 -21 28
-28 18 -11 24 -11 39 3 15 14 20 37 23 118 17 367 28 525 38 547 6 14 15 59
19 100 9 79 28 158 55 225 9 22 18 48 22 59 5 16 162 331 205 411 57 107 288
585 288 597 0 8 4 18 9 23 27 28 69 191 82 320 5 50 14 110 19 135 13 68 20
827 10 1160 -10 333 -25 568 -39 620 -5 19 -13 58 -16 85 -14 97 -65 247 -131
379 -30 60 -54 115 -54 123 0 8 -13 32 -29 52 -16 20 -38 54 -48 76 -10 22
-26 48 -36 58 -10 10 -25 35 -33 54 -19 45 -80 133 -103 149 -9 7 -26 32 -36
56 -11 24 -36 63 -57 87 -21 24 -42 56 -46 70 -7 27 -146 240 -179 276 -10 11
-31 41 -46 68 -27 46 -46 60 -48 35z"/>
<path d="M2360 7528 c-10 -22 -5 -340 18 -1284 l7 -282 48 -50 47 -51 0 -160
0 -159 -32 -39 -33 -39 8 -704 c4 -426 11 -712 17 -722 6 -10 10 -38 10 -64 0
-25 6 -52 14 -59 10 -10 14 -58 15 -198 l2 -185 -35 -6 c-42 -8 -76 7 -76 34
0 11 -13 35 -30 53 -28 32 -30 40 -30 112 0 72 2 80 30 112 18 20 29 42 26 51
-2 9 -8 325 -11 702 -8 724 -9 740 -53 740 -10 0 -24 6 -31 13 -9 9 -108 12
-424 12 -227 0 -420 -3 -430 -7 -16 -7 -17 -44 -15 -620 l3 -613 60 -7 c33 -4
77 -9 99 -11 27 -3 48 -14 68 -35 16 -18 46 -36 71 -42 91 -23 163 -62 242
-130 47 -40 103 -108 118 -140 4 -8 17 -31 28 -50 12 -19 33 -66 46 -105 23
-65 25 -83 24 -245 -1 -181 -13 -325 -29 -357 -6 -10 -22 -44 -36 -75 l-26
-57 0 -405 c0 -282 3 -413 11 -430 8 -17 41 -39 103 -70 132 -65 188 -88 198
-78 4 4 9 329 10 722 l3 715 101 10 c57 6 109 17 118 24 15 13 16 35 12 195
-3 100 -10 402 -16 671 -5 270 -15 513 -21 540 -6 30 -12 263 -14 570 -6 737
-13 1062 -24 1120 -6 28 -13 264 -16 525 -3 261 -10 484 -15 495 -4 11 -11 28
-14 38 -3 10 -15 17 -29 17 -14 0 -41 7 -60 15 -46 19 -46 19 -57 -7z"/>
<path d="M6452 7533 c-24 -8 -50 -26 -59 -39 -16 -26 -15 12 -49 -1179 -26
-919 -26 -926 -14 -940 8 -10 20 -10 48 -3 20 6 53 12 74 15 34 5 36 7 40 46
6 50 -6 77 -31 77 -34 0 -43 48 -39 214 l3 155 33 34 c19 19 38 52 44 73 10
34 35 898 41 1404 l2 155 -25 2 c-14 1 -44 -5 -68 -14z"/>
<path d="M3521 6544 c-33 -42 -27 -100 19 -195 13 -25 42 -138 57 -224 22
-120 42 -369 54 -652 16 -379 -12 -1465 -40 -1563 -6 -19 -15 -62 -20 -95 -6
-33 -20 -91 -31 -130 -12 -38 -24 -80 -27 -92 -6 -25 28 -102 57 -128 21 -19
40 -18 250 10 356 49 764 51 1180 6 58 -7 125 -16 150 -21 25 -5 61 -11 82
-15 l36 -6 32 67 c18 39 29 76 27 88 -3 12 -13 50 -22 86 -9 36 -22 97 -30
135 -7 39 -16 79 -20 90 -19 63 -42 717 -43 1205 0 646 41 1075 123 1265 21
48 15 89 -19 144 -25 39 -29 41 -75 41 -32 0 -53 -5 -61 -15 -11 -14 -37 -15
-169 -12 -86 3 -408 7 -716 10 -516 5 -677 10 -746 23 -21 4 -32 -1 -48 -22z"/>
<path d="M6267 6205 c-5 -212 -4 -362 2 -380 7 -24 9 -10 10 65 1 52 4 194 7
315 3 121 1 249 -3 285 -7 49 -11 -21 -16 -285z"/>
<path d="M6815 5370 c-11 -5 -62 -9 -113 -9 -95 -1 -161 -18 -163 -43 -2 -24
-20 -790 -25 -1075 -4 -275 -4 -284 17 -325 12 -24 32 -53 45 -65 22 -20 24
-30 24 -127 0 -104 -1 -106 -30 -136 -16 -17 -30 -37 -30 -44 0 -7 -9 -25 -20
-39 -18 -22 -20 -38 -18 -99 l3 -73 35 1 c78 2 128 57 144 159 30 180 171 391
323 483 101 61 253 108 388 119 33 3 66 10 73 15 15 13 14 -34 19 639 l3 566
-21 19 c-15 14 -45 21 -108 27 -129 12 -523 17 -546 7z"/>
<path d="M1259 5320 c-10 -7 -14 -1234 -4 -1250 9 -14 48 -12 68 3 16 11 17
58 15 632 l-3 620 -33 0 c-18 1 -37 -2 -43 -5z"/>
<path d="M6364 5316 c-18 -8 -36 -20 -40 -28 -5 -7 -12 -130 -16 -273 -4 -143
-14 -492 -23 -775 -29 -948 -29 -872 -4 -892 16 -14 40 -18 94 -18 81 0 85 3
85 85 0 48 -21 82 -53 87 -22 3 -22 5 -25 180 l-2 177 33 38 c19 21 38 49 42
63 9 28 26 679 28 1095 l2 270 -45 2 c-25 2 -59 -4 -76 -11z"/>
<path d="M2639 5027 c-2 -6 -1 -95 3 -197 4 -102 10 -259 13 -350 4 -91 11
-169 16 -174 13 -14 12 253 -1 329 -6 33 -11 135 -10 227 0 92 -4 169 -9 172
-5 3 -11 0 -12 -7z"/>
<path d="M1250 3951 c-130 -25 -286 -125 -374 -240 -135 -176 -174 -445 -90
-614 8 -16 14 -33 14 -37 0 -5 16 -35 35 -67 79 -133 214 -238 370 -288 88
-29 286 -27 371 3 182 63 313 177 390 340 18 40 34 78 34 85 0 6 7 30 15 52
29 81 11 295 -33 381 -35 70 -50 95 -89 146 -78 102 -176 174 -301 219 -64 23
-263 34 -342 20z m221 -202 c10 -5 31 -9 47 -9 16 0 35 -7 42 -15 7 -8 19 -15
27 -15 25 0 104 -68 149 -128 62 -83 77 -130 81 -251 4 -102 -4 -144 -38 -201
-5 -8 -13 -25 -18 -37 -20 -46 -153 -163 -184 -163 -8 0 -20 -6 -26 -14 -30
-36 -302 -36 -332 0 -6 8 -18 14 -26 14 -38 0 -155 113 -190 183 -48 96 -53
117 -53 208 0 91 3 101 52 206 23 50 114 153 134 153 8 0 17 7 20 15 4 8 14
15 24 15 10 0 23 7 30 15 7 8 24 15 39 15 14 0 44 7 66 15 41 16 122 13 156
-6z"/>
<path d="M1343 3710 c-4 -17 -14 -20 -55 -20 -30 0 -47 -4 -43 -10 3 -6 -6
-15 -22 -21 -15 -5 -30 -13 -33 -17 -7 -10 -40 -30 -80 -47 l-35 -16 80 -36
c142 -63 193 -56 227 34 22 58 23 83 4 109 -10 13 -11 23 -4 31 8 10 5 13 -12
13 -13 0 -24 -8 -27 -20z"/>
<path d="M1520 3596 c0 -109 15 -168 45 -180 9 -3 43 -6 76 -6 50 0 64 4 84
25 28 27 35 71 10 61 -9 -3 -19 3 -26 17 -18 33 -89 105 -126 128 -19 12 -33
29 -33 40 0 10 -7 19 -15 19 -12 0 -15 -18 -15 -104z"/>
<path d="M990 3402 c0 -10 3 -22 6 -25 4 -4 8 -33 8 -66 1 -32 7 -65 13 -73 6
-7 14 -35 18 -63 4 -27 9 -54 12 -59 14 -22 143 157 143 199 -1 48 -84 105
-154 105 -38 0 -46 -3 -46 -18z"/>
<path d="M1658 3260 c-72 -29 -107 -61 -108 -96 0 -26 32 -100 59 -134 17 -21
21 -22 36 -10 9 7 13 20 11 27 -3 8 8 29 24 46 16 18 30 38 30 45 0 7 7 15 15
18 9 4 15 19 15 40 0 23 6 38 20 46 11 7 20 21 20 30 0 26 -42 22 -122 -12z"/>
<path d="M1247 3099 c-51 -34 -61 -47 -72 -97 l-7 -33 38 7 c28 5 40 3 48 -9
9 -11 37 -16 117 -19 120 -3 116 -9 53 82 -71 101 -107 115 -177 69z"/>
<path d="M7385 3954 c-46 -8 -134 -39 -195 -71 -32 -16 -92 -64 -141 -113 -93
-91 -133 -159 -170 -290 -23 -80 -25 -245 -4 -305 8 -22 15 -46 15 -53 0 -7
17 -47 38 -89 27 -56 58 -99 117 -159 76 -78 96 -92 175 -129 105 -49 152 -59
280 -59 154 0 225 20 350 98 120 76 245 244 271 366 4 19 13 61 20 92 13 57 9
114 -19 245 -15 68 -89 204 -142 260 -61 65 -152 132 -210 157 -25 10 -60 25
-79 33 -35 15 -245 26 -306 17z m180 -199 c22 -8 51 -15 63 -15 36 0 134 -60
189 -116 30 -30 93 -130 93 -147 0 -8 7 -31 15 -50 31 -76 15 -206 -40 -315
-21 -41 -123 -152 -140 -152 -7 0 -15 -7 -19 -15 -3 -8 -14 -15 -24 -15 -10 0
-23 -5 -30 -12 -6 -6 -37 -16 -69 -21 -113 -19 -220 -8 -287 29 -22 13 -50 28
-61 33 -31 14 -118 111 -139 156 -10 22 -25 52 -33 67 -8 17 -13 64 -13 138 0
107 8 146 41 200 5 8 13 24 18 35 20 45 143 155 174 155 8 0 20 6 26 14 7 8
28 16 49 19 20 3 53 10 72 15 49 14 69 13 115 -3z"/>
<path d="M7513 3716 c3 -8 -1 -20 -9 -26 -19 -16 -18 -68 2 -116 23 -56 43
-74 79 -74 36 0 137 33 172 55 12 8 30 15 40 15 17 1 16 2 -1 15 -11 8 -26 15
-33 15 -8 0 -19 5 -26 10 -49 42 -62 50 -79 50 -10 0 -18 7 -18 15 0 11 -12
15 -45 15 -38 0 -45 3 -45 20 0 14 -7 20 -21 20 -14 0 -19 -5 -16 -14z"/>
<path d="M7340 3682 c0 -11 -22 -34 -54 -56 -54 -37 -106 -94 -106 -115 0 -6
-9 -11 -20 -11 -30 0 -26 -44 6 -69 30 -23 120 -29 155 -11 34 19 49 75 49
181 0 81 -3 99 -15 99 -8 0 -15 -8 -15 -18z"/>
<path d="M7785 3411 c-33 -14 -85 -73 -85 -97 0 -44 109 -204 140 -204 14 0
13 27 -1 36 -8 5 -6 10 5 16 10 6 16 22 16 44 0 19 7 46 16 59 11 16 15 38 12
62 -3 21 0 46 6 56 8 13 8 20 -4 27 -18 12 -77 12 -105 1z"/>
<path d="M7110 3278 c0 -7 9 -24 20 -38 11 -14 20 -35 20 -48 0 -22 24 -63 63
-106 9 -11 17 -28 17 -37 0 -31 31 -40 50 -15 20 25 60 113 60 132 0 29 -53
73 -118 98 -74 28 -112 33 -112 14z"/>
<path d="M7545 3116 c-31 -14 -67 -55 -101 -116 -10 -19 -25 -40 -32 -45 -9
-7 22 -9 100 -7 86 3 115 8 122 19 6 11 17 13 41 9 40 -8 47 1 35 43 -8 30
-49 72 -94 98 -26 15 -34 15 -71 -1z"/>
<path d="M4380 3470 c-69 -3 -131 -9 -139 -14 -8 -5 -97 -10 -197 -12 -101 -1
-204 -7 -231 -13 -26 -6 -82 -16 -123 -23 -70 -13 -76 -16 -102 -53 -16 -23
-32 -65 -38 -100 -25 -137 -60 -387 -80 -575 -6 -52 -15 -107 -21 -121 -13
-32 -20 -356 -8 -386 7 -20 15 -23 61 -22 29 0 76 5 103 10 28 5 131 17 230
26 328 30 1325 16 1380 -18 6 -4 55 -10 110 -14 136 -9 130 -19 129 205 -1
103 -6 184 -12 196 -6 11 -13 48 -17 83 -4 34 -11 85 -16 114 -5 29 -14 96
-19 150 -5 54 -13 112 -19 130 -5 18 -13 72 -17 121 -3 48 -15 111 -26 140
-11 28 -22 58 -25 67 -7 23 -56 49 -92 49 -18 0 -60 6 -94 14 -116 27 -544 54
-737 46z"/>
<path d="M6266 3283 c-8 -8 -8 -318 1 -326 3 -4 17 0 31 9 18 12 36 14 69 9
33 -5 51 -2 69 10 23 15 24 19 24 139 0 105 -3 125 -17 138 -19 16 -164 33
-177 21z"/>
<path d="M6506 3264 c-3 -9 -6 -74 -6 -145 0 -145 -2 -140 80 -153 60 -10 70
-40 70 -203 l0 -139 -38 -37 c-25 -24 -52 -40 -75 -44 l-37 -6 0 -332 c0 -182
3 -334 6 -338 10 -10 282 131 294 152 6 13 10 156 10 402 l0 383 -32 33 c-20
20 -34 48 -39 75 -4 24 -17 75 -28 113 -11 39 -23 102 -26 140 -11 123 -4 115
-94 115 -63 0 -80 -3 -85 -16z"/>
<path d="M1939 2710 c-19 -22 -46 -54 -61 -72 -27 -35 -56 -52 -150 -89 -31
-12 -59 -27 -61 -33 -7 -20 13 -490 23 -541 5 -27 14 -153 20 -280 5 -126 14
-264 18 -305 6 -70 9 -75 32 -78 13 -2 33 -10 44 -18 21 -15 150 -18 193 -6
21 7 66 66 102 137 19 35 50 45 171 54 l85 6 -2 65 c-1 36 -5 112 -10 170 l-8
105 -122 60 c-68 33 -135 72 -150 88 l-28 27 -5 359 c-5 367 -8 391 -45 391
-7 0 -28 -18 -46 -40z"/>
<path d="M6866 2694 c-3 -9 -6 -166 -6 -350 l0 -335 -44 -44 c-25 -24 -57 -47
-72 -51 -37 -9 -179 -81 -192 -97 -5 -6 -12 -83 -14 -172 l-3 -160 65 -7 c110
-11 164 -20 177 -30 7 -6 23 -31 35 -57 48 -100 50 -101 139 -101 81 0 168 17
181 35 4 5 8 48 8 95 0 55 4 90 13 98 13 14 21 112 37 467 6 121 15 243 21
270 6 28 9 97 7 155 l-3 105 -90 45 c-102 51 -134 71 -189 117 -44 37 -61 41
-70 17z"/>
<path d="M6258 2546 c-10 -20 -12 -107 -8 -403 4 -325 7 -378 20 -381 8 -1 49
15 90 35 l75 38 6 305 c3 168 9 317 13 331 13 44 -8 69 -57 69 -23 1 -60 7
-82 15 -22 8 -41 15 -42 15 -1 0 -8 -11 -15 -24z"/>
<path d="M1540 2541 c-25 -4 -67 -13 -93 -21 l-49 -15 6 -45 c4 -25 13 -101
21 -170 8 -69 22 -183 30 -255 9 -71 18 -150 20 -175 3 -25 9 -76 15 -115 5
-38 15 -127 23 -197 11 -115 15 -130 39 -155 14 -15 28 -39 30 -53 2 -15 11
-26 23 -28 11 -2 27 -10 36 -18 9 -8 24 -12 33 -8 14 5 17 14 12 43 -4 20 -11
124 -16 231 -5 107 -12 222 -15 255 -2 33 -12 175 -20 315 -19 327 -28 413
-40 415 -5 1 -30 -1 -55 -4z"/>
<path d="M4280 2169 c-52 -4 -178 -13 -280 -18 -214 -12 -471 -39 -484 -52
-10 -9 -30 -106 -46 -218 -6 -36 -14 -78 -19 -95 -5 -17 -12 -68 -15 -113 -4
-46 -10 -93 -15 -105 -5 -13 -12 -60 -16 -106 l-7 -82 68 6 c302 26 1196 34
1683 15 240 -10 296 -10 303 1 12 17 -1 397 -14 422 -5 10 -9 71 -9 136 2 127
0 133 -54 144 -72 15 -305 37 -495 46 -113 6 -230 15 -261 20 -63 11 -200 11
-339 -1z"/>
<path d="M4055 1351 c-11 -4 -153 -11 -315 -15 -256 -5 -297 -8 -307 -23 -7
-9 -10 -20 -7 -24 3 -5 59 -6 125 -2 106 5 121 4 139 -12 11 -10 20 -27 20
-38 0 -11 14 -42 30 -69 17 -27 34 -64 37 -81 4 -17 12 -43 20 -57 19 -37 16
-74 -8 -96 -17 -15 -39 -19 -103 -21 -44 -1 -85 -2 -90 -3 -26 -1 24 -157 64
-200 l28 -30 704 0 c446 0 716 4 740 10 41 12 95 67 104 108 4 15 13 37 21 50
7 12 11 26 9 31 -3 5 -38 10 -79 13 -46 3 -83 11 -100 23 -24 15 -27 24 -27
71 0 37 8 70 25 106 14 28 25 61 25 71 0 20 64 125 84 139 15 11 60 10 71 -1
6 -5 46 -11 90 -13 77 -3 80 -2 83 20 3 21 0 22 -65 23 -37 1 -162 5 -278 11
-274 13 -1014 19 -1040 9z m905 -206 c21 -19 22 -25 16 -113 -4 -51 -10 -101
-15 -110 -5 -9 -14 -35 -20 -58 -6 -23 -22 -53 -35 -67 -29 -32 19 -29 -522
-30 l-391 0 -40 40 c-44 44 -51 58 -63 123 -4 25 -13 71 -20 103 -10 53 -9 61
10 92 11 18 31 36 43 38 12 3 245 4 518 3 482 -1 498 -2 519 -21z"/>
<path d="M5717 667 c-3 -8 -21 -21 -40 -30 -32 -16 -140 -17 -1252 -17 l-1217
0 -49 27 -49 26 -23 -21 c-13 -12 -34 -22 -48 -22 -14 0 -30 -5 -37 -12 -17
-17 -15 -162 2 -218 l14 -45 51 2 c28 1 60 7 70 13 27 14 2555 14 2582 0 10
-6 42 -12 71 -13 51 -2 52 -2 61 33 6 19 12 74 14 121 5 94 -6 119 -51 119
-12 0 -33 11 -46 25 -26 28 -45 32 -53 12z"/>
</g>
</svg>
