<?xml version="1.0" standalone="no"?>
<!DOCTYPE svg PUBLIC "-//W3C//DTD SVG 20010904//EN"
 "http://www.w3.org/TR/2001/REC-SVG-20010904/DTD/svg10.dtd">
<svg version="1.0" xmlns="http://www.w3.org/2000/svg"
 width="300.000000pt" height="257.000000pt" viewBox="0 0 300.000000 257.000000"
 preserveAspectRatio="xMidYMid meet">
<metadata>
Created by potrace 1.10, written by Peter Selinger 2001-2011
</metadata>
<g transform="translate(0.000000,257.000000) scale(0.050000,-0.050000)"
fill="#000000" stroke="none">
<path d="M2149 4852 c-192 -84 -208 -406 -26 -538 200 -146 436 212 289 436
-65 99 -173 141 -263 102z"/>
<path d="M4742 4835 c-184 -95 -183 -383 2 -521 98 -73 259 25 287 173 45 243
-116 437 -289 348z"/>
<path d="M3436 4805 c47 -4 119 -4 160 0 40 5 2 8 -86 8 -88 0 -122 -3 -74 -8z"/>
<path d="M3845 4805 c41 -4 109 -4 150 0 41 5 8 8 -75 8 -82 0 -116 -3 -75 -8z"/>
<path d="M5188 4805 c8 -15 4 -25 -12 -25 -19 -1 -18 -6 4 -20 40 -26 120 -25
120 1 0 12 -10 15 -21 8 -12 -7 -41 4 -64 24 -23 20 -35 26 -27 12z"/>
<path d="M1690 4739 c-88 -21 -234 -48 -324 -61 l-163 -24 -33 -148 c-37 -163
-14 -246 68 -246 130 0 581 45 622 63 115 48 -7 77 -323 77 -286 0 -351 14
-302 63 26 26 499 102 569 92 41 -6 56 2 64 34 17 60 14 191 -3 189 -8 -1 -87
-19 -175 -39z m166 -44 c-6 -47 -237 -96 -253 -53 -3 10 -24 18 -46 18 -22 0
-34 -9 -27 -19 6 -11 -9 -24 -34 -29 -25 -4 -95 -18 -154 -30 -117 -24 -133
-20 -115 27 7 19 37 31 77 32 36 0 161 21 276 47 278 62 284 62 276 7z m-556
-182 c-76 -19 -90 -31 -90 -73 0 -44 11 -51 90 -62 l90 -12 -96 -3 c-177 -6
-77 -43 122 -46 l194 -3 -190 -14 c-213 -17 -240 -7 -240 87 1 134 16 153 117
151 l93 -1 -90 -24z m520 -173 c-27 -9 -86 -16 -130 -15 l-80 1 90 14 c130 20
183 20 120 0z"/>
<path d="M1670 4680 c-31 -14 -23 -17 40 -18 44 -1 94 7 110 18 39 25 -92 25
-150 0z"/>
<path d="M5420 4735 c79 -28 85 -62 13 -71 -109 -14 -53 -184 60 -184 71 0 56
37 -18 44 -84 8 -90 73 -10 112 89 42 58 110 -55 119 -59 5 -59 5 10 -20z"/>
<path d="M4225 4666 c-25 -5 -45 -19 -45 -32 0 -18 -119 -23 -471 -18 l-471 5
6 -85 6 -86 360 7 c608 13 558 5 572 90 15 93 15 93 131 112 79 13 84 16 27
16 -38 0 -90 -4 -115 -9z"/>
<path d="M2682 4603 c-63 -12 -71 -22 -98 -118 -16 -58 -37 -105 -47 -105 -9
0 -17 -17 -17 -38 0 -46 -161 -265 -227 -308 -145 -95 -101 -105 395 -88 534
19 507 7 515 223 l6 159 -312 -6 c-476 -8 -457 66 27 105 l278 22 -6 80 -7 81
-220 3 c-120 1 -250 -3 -287 -10z"/>
<path d="M590 4476 c-5 -14 -11 -123 -14 -242 l-6 -216 120 6 c105 5 120 11
120 46 0 35 -11 39 -85 34 l-85 -7 0 190 c0 171 -24 262 -50 189z"/>
<path d="M4125 4444 c-149 -11 -91 -44 76 -44 89 0 156 8 150 18 -13 22 -115
34 -226 26z"/>
<path d="M5460 4401 c-27 -7 -51 -24 -52 -37 -2 -13 -4 -37 -5 -54 -2 -16 -36
-66 -75 -110 -75 -82 -71 -104 8 -49 24 17 44 44 44 60 0 16 33 65 73 109 80
89 81 100 7 81z"/>
<path d="M3703 4352 l-447 -22 -4 -176 -4 -175 51 9 c28 5 237 25 463 44 l413
35 11 123 c7 68 15 136 18 151 8 36 9 36 -501 11z"/>
<path d="M1555 4226 c-19 -5 -35 -21 -35 -36 0 -33 37 -60 56 -41 7 7 0 21
-15 31 -21 12 -11 22 40 37 67 19 24 28 -46 9z"/>
<path d="M5181 4121 c-48 -36 -110 -43 -155 -15 -12 8 -52 13 -89 12 -37 0
-137 -2 -222 -4 -90 -1 -144 -9 -130 -19 14 -9 -18 -12 -75 -7 -58 6 -88 3
-72 -7 17 -10 -37 -22 -141 -31 -104 -10 -152 -21 -127 -30 21 -7 75 -5 120 5
44 10 113 15 153 11 41 -4 69 1 63 10 -5 9 40 13 101 9 60 -3 105 1 99 11 -6
10 39 14 100 10 62 -5 107 0 101 9 -6 10 18 15 54 11 36 -3 69 -15 73 -27 8
-26 -222 -79 -256 -58 -14 9 -19 7 -12 -5 14 -23 -209 -68 -290 -58 -30 4 -51
0 -46 -8 5 -8 -44 -21 -110 -28 -116 -14 -161 -37 -120 -62 11 -7 20 -2 20 10
0 14 27 21 65 19 36 -3 79 1 95 8 33 13 215 36 313 40 35 1 59 10 53 20 -7 10
16 14 50 9 34 -5 58 -2 53 5 -13 21 162 61 205 47 31 -10 32 -8 6 12 -24 19
-20 21 25 11 40 -9 59 -3 68 19 8 21 26 27 54 19 33 -9 36 -7 14 8 -24 17 -24
25 -2 51 34 42 22 40 -38 -7z"/>
<path d="M1478 3984 c-74 -99 -123 -196 -75 -149 27 26 126 36 110 10 -5 -8
38 -12 96 -8 118 7 165 -12 445 -180 303 -182 635 -289 370 -120 -126 82 -242
212 -258 291 -7 32 -28 62 -49 67 -49 13 -47 45 3 45 22 0 40 7 40 15 0 15
-522 -11 -538 -27 -25 -24 43 -36 262 -46 l244 -12 15 -62 c15 -55 144 -200
247 -277 22 -16 33 -30 24 -30 -24 -1 -119 50 -381 204 -217 129 -251 142
-400 161 -200 25 -190 17 -123 114 79 114 52 118 -32 4z"/>
<path d="M4058 3905 c-2 -8 -4 -24 -5 -35 -5 -34 -138 -170 -239 -244 -53 -39
-92 -75 -86 -80 5 -6 40 13 78 42 37 29 72 52 76 52 54 0 253 234 218 256 -22
13 -41 18 -42 9z"/>
<path d="M3710 3879 c-66 -8 -178 -16 -250 -17 -165 -3 -169 -6 -198 -162 -14
-71 -30 -150 -36 -175 -37 -159 555 89 653 273 23 43 -1 107 -36 99 -7 -2 -67
-10 -133 -18z"/>
<path d="M2900 3827 c-38 -4 -117 -12 -175 -18 l-105 -12 0 -116 c0 -177 28
-200 253 -215 l182 -12 15 164 c15 171 -2 225 -67 219 -18 -2 -64 -6 -103 -10z"/>
<path d="M2280 3783 c0 -26 99 -121 185 -178 41 -28 75 -62 75 -77 0 -15 19
-37 43 -50 38 -20 41 -18 27 15 -8 20 -19 57 -25 81 -6 27 -20 39 -37 32 -22
-8 -28 13 -28 92 l0 102 -120 0 c-66 0 -120 -8 -120 -17z"/>
<path d="M483 3539 c-217 -64 -254 -103 -183 -194 39 -48 40 -81 40 -861 l0
-811 -45 -48 -45 -48 43 -36 c112 -91 382 -102 422 -18 19 40 46 57 103 67
208 35 227 107 228 860 1 822 -40 990 -245 990 -50 0 -70 14 -104 70 -47 80
-44 80 -214 29z m45 -384 c7 -179 14 -507 16 -730 3 -379 13 -474 48 -439 9 8
21 224 28 479 l13 465 2 -570 c0 -314 -5 -549 -12 -524 -34 120 -76 24 -81
-181 -2 -122 -4 -126 -62 -95 -32 17 -34 30 -16 94 16 61 14 78 -12 97 -18 13
-32 40 -32 60 0 29 5 32 24 13 37 -37 56 -29 56 26 0 31 11 50 30 50 17 0 30
14 30 30 0 42 -73 38 -98 -5 -15 -25 -20 53 -17 265 l4 300 6 -245 c4 -140 15
-245 26 -245 24 0 23 1173 -1 1230 -11 26 -19 -32 -21 -170 l-5 -210 -15 186
c-8 102 -21 210 -28 238 -12 46 -10 50 18 27 37 -31 45 36 11 99 -19 35 14 77
62 79 7 1 19 -145 26 -324z m240 193 c27 -71 12 -224 -27 -271 l-40 -47 0 175
c-1 171 31 238 67 143z m30 -569 c-11 -7 -20 -133 -22 -281 -1 -147 -8 -241
-15 -208 -11 49 -13 553 -2 590 1 6 15 -12 30 -40 16 -29 20 -54 9 -61z m117
-263 c-5 -48 -8 -14 -8 74 0 88 3 126 8 86 4 -41 4 -113 0 -160z m-4 -271
c-23 -24 -29 10 -15 86 l14 79 6 -77 c4 -42 2 -82 -5 -88z m-202 -474 c-7 -69
-30 -152 -51 -184 l-38 -57 3 130 c2 111 4 118 15 50 17 -115 42 -42 43 127 0
102 5 125 21 97 13 -22 16 -85 7 -163z m65 -16 c-4 -36 -8 -11 -8 55 0 66 4
95 8 65 5 -30 5 -84 0 -120z"/>
<path d="M5370 3532 c-5 -17 -14 -45 -19 -61 -5 -15 -33 -31 -63 -35 -128 -15
-151 -162 -39 -255 17 -14 31 -51 31 -82 0 -31 23 -101 50 -156 119 -237 120
-598 2 -850 -39 -83 -66 -166 -60 -182 7 -17 -11 -58 -40 -92 -85 -101 -37
-239 84 -239 30 0 44 -12 44 -38 0 -68 49 -88 154 -64 53 12 129 26 169 32
110 17 108 -5 97 1002 -11 1063 0 997 -175 1014 -63 7 -140 18 -170 25 -41 10
-57 5 -65 -19z m147 -318 c-2 -179 -5 -206 -18 -134 -24 133 -23 385 1 370 12
-7 19 -106 17 -236z m120 176 c3 -33 0 -53 -8 -45 -9 8 -27 5 -42 -8 -22 -18
-27 -8 -27 52 0 95 66 96 77 1z m86 -323 l-7 -357 -34 130 c-27 107 -29 137
-8 169 17 26 26 110 26 237 0 108 7 192 15 187 8 -5 12 -170 8 -366z m-263
-148 c0 -23 10 -61 23 -84 23 -43 31 -588 9 -610 -7 -6 -12 -51 -12 -100 0
-62 -7 -86 -25 -80 -28 10 -28 41 5 265 28 188 12 471 -30 557 -38 75 -38 93
0 93 17 0 30 -18 30 -41z m173 -164 c4 -123 2 -133 -13 -65 -41 192 -46 261
-18 235 17 -16 28 -80 31 -170z m-53 -235 c0 -120 -8 -200 -20 -200 -22 0 -29
365 -7 387 25 25 27 13 27 -187z m44 -363 c-16 -57 -21 -61 -35 -29 -8 20 -5
65 8 101 13 35 25 86 26 112 2 27 7 12 12 -34 4 -46 -1 -113 -11 -150z m96 -9
l0 -192 -40 47 c-39 46 -41 46 -70 8 -22 -28 -30 -31 -30 -10 0 16 18 40 39
54 41 25 81 138 81 230 0 30 5 55 10 55 6 0 10 -86 10 -192z m-220 -568 c-12
-22 -34 -40 -49 -40 -38 0 -58 71 -33 115 17 29 21 24 21 -30 1 -36 10 -65 21
-65 11 0 21 29 22 65 2 36 5 74 7 85 3 11 8 65 12 120 6 82 8 72 14 -55 4 -86
-3 -172 -15 -195z m140 264 c0 -19 -9 -47 -20 -64 -14 -22 -19 -10 -20 46 0
46 8 71 20 64 11 -7 20 -28 20 -46z m88 -147 c8 -46 5 -92 -5 -102 -12 -12
-22 20 -26 83 -8 123 13 135 31 19z m-68 -58 c0 -37 -26 -79 -50 -79 -26 0
-50 42 -50 89 0 16 18 22 50 16 28 -5 50 -17 50 -26z"/>
<path d="M4200 3525 c-140 -12 -133 -35 11 -35 90 0 129 8 129 25 0 14 -11 23
-25 22 -14 -2 -65 -7 -115 -12z"/>
<path d="M1532 3398 c-112 -16 -149 -29 -130 -45 16 -14 318 34 318 50 0 19
-25 19 -188 -5z"/>
<path d="M4130 3380 c56 -24 135 -24 120 0 -7 11 -46 19 -86 19 -60 -2 -66 -5
-34 -19z"/>
<path d="M4420 3365 c0 -11 56 -26 125 -34 263 -29 598 -115 567 -146 -6 -6
-2 -23 11 -38 17 -21 12 -27 -26 -29 -45 -1 -45 -2 8 -21 54 -20 76 -57 33
-57 -47 0 -972 244 -1026 271 -76 38 -85 25 -33 -45 130 -176 168 -1221 52
-1444 l-35 -67 77 14 c119 21 618 145 806 200 173 50 221 50 152 -1 -37 -27
-37 -28 10 -28 40 0 54 15 74 78 66 212 72 361 39 874 -3 34 -16 76 -29 92
-14 16 -31 60 -38 98 -17 94 -141 254 -205 266 -118 22 -562 35 -562 17z m620
-826 c0 -186 -8 -282 -25 -304 -21 -28 -538 -175 -614 -175 -14 0 -21 151 -21
457 l0 458 330 -82 330 -82 0 -272z"/>
<path d="M3781 3198 c-206 -97 -189 -76 -183 -212 7 -185 38 -313 84 -351 76
-63 76 -202 1 -273 -49 -45 -63 -75 -63 -135 -1 -42 -10 -135 -20 -207 -24
-163 0 -190 242 -271 l164 -54 36 47 c100 131 130 1115 42 1393 -55 175 -62
177 -303 63z m119 -368 c0 -167 -5 -176 -49 -91 -37 71 -41 214 -6 228 51 20
55 10 55 -137z m11 -784 c-7 -29 -27 -46 -51 -46 -60 0 -56 179 5 278 l45 72
6 -129 c3 -72 1 -150 -5 -175z"/>
<path d="M1405 3221 c-108 -17 -120 -30 -145 -152 -58 -285 -38 -1129 29
-1220 22 -31 337 -89 360 -67 5 5 -19 90 -53 189 -119 347 -96 891 53 1234 17
39 -70 44 -244 16z"/>
<path d="M1749 3071 c-110 -264 -134 -731 -51 -1025 61 -217 65 -219 274 -189
272 39 267 36 233 186 -34 152 -40 737 -9 887 26 125 27 124 -175 160 -92 16
-184 35 -204 41 -29 9 -45 -4 -68 -60z"/>
<path d="M3340 3056 c-49 -11 -301 -21 -560 -23 l-470 -4 -16 -200 c-13 -158
-9 -466 12 -881 0 -16 152 -27 502 -35 276 -6 544 -19 596 -29 91 -17 95 -16
104 34 63 321 73 663 31 972 -29 212 -19 204 -199 166z m0 -541 c-1 -418 48
-375 -420 -375 -467 0 -420 -39 -420 351 l0 288 355 6 c195 3 384 8 420 10
l65 5 0 -285z"/>
<path d="M1133 2665 c-18 -107 -12 -486 8 -545 11 -31 13 17 6 125 -8 123 -5
175 11 175 14 0 22 52 22 149 0 161 -27 216 -47 96z"/>
<path d="M4284 1700 c-98 -23 -102 -40 -9 -40 53 0 85 10 92 30 13 33 12 33
-83 10z"/>
<path d="M4888 1677 c-8 -13 91 -37 155 -37 20 0 37 11 37 25 0 26 -176 37
-192 12z"/>
<path d="M1422 1653 c6 -7 65 -22 130 -34 65 -11 138 -24 163 -30 31 -7 45 0
45 21 0 22 -21 30 -77 30 -43 0 -121 6 -175 13 -54 7 -93 7 -86 0z"/>
<path d="M2480 1611 c-93 -34 -351 -165 -550 -279 -154 -89 -422 -140 -380
-72 7 11 -1 14 -19 8 -17 -7 -31 -18 -31 -25 0 -8 -27 -13 -59 -13 -60 0 -86
-32 -40 -47 14 -5 19 0 13 11 -7 11 35 15 105 10 179 -13 290 22 561 175 137
77 310 165 385 194 74 29 135 56 135 60 0 13 -50 4 -120 -22z"/>
<path d="M2740 1585 c-87 -16 -100 -41 -100 -192 l0 -143 105 -4 c58 -2 161
-9 230 -16 l125 -13 0 129 c0 71 -6 157 -12 192 l-13 62 -142 -3 c-79 -1 -165
-7 -193 -12z"/>
<path d="M3214 1588 c-37 -38 33 -318 87 -348 52 -29 543 -64 566 -41 89 89
-273 342 -558 390 -44 7 -87 7 -95 -1z"/>
<path d="M4093 1536 c11 -19 234 -17 317 3 37 9 -15 14 -133 13 -107 0 -190
-8 -184 -16z"/>
<path d="M4811 1541 c-8 -12 -22 -17 -31 -11 -10 6 -28 -7 -40 -29 -16 -32
-15 -41 5 -41 29 0 103 78 88 93 -5 5 -15 0 -22 -12z"/>
<path d="M4400 1496 c0 -19 36 -24 142 -19 171 8 170 13 -7 31 -103 10 -135 7
-135 -12z"/>
<path d="M2392 1382 c-116 -118 -108 -144 44 -137 l114 5 6 115 c8 149 -30
153 -164 17z"/>
<path d="M4200 1219 c0 -54 135 -69 210 -23 35 21 32 23 -27 13 -37 -6 -78 -2
-90 8 -27 21 -93 23 -93 2z"/>
<path d="M4435 1180 c-33 -32 -33 -33 10 -30 25 2 52 -6 60 -18 10 -15 14 -14
15 3 0 14 10 25 21 25 12 0 16 -9 10 -19 -15 -24 69 -9 96 18 13 13 1 16 -35
10 -31 -6 -50 -2 -44 8 6 9 -9 16 -34 15 -24 -2 -48 3 -54 9 -5 7 -26 -2 -45
-21z"/>
<path d="M1965 1186 c-67 -13 -34 -46 46 -46 48 0 69 9 69 30 0 30 -26 33
-115 16z"/>
<path d="M1455 1116 c-14 -37 54 -110 73 -79 7 11 3 26 -8 33 -11 7 -15 23 -7
34 7 13 4 16 -8 9 -12 -7 -25 -2 -30 11 -5 16 -12 13 -20 -8z"/>
<path d="M2260 1108 c0 -7 46 -63 103 -125 57 -62 128 -146 157 -187 32 -43
62 -67 72 -56 17 16 750 0 1343 -31 l245 -12 0 158 0 159 -425 32 c-911 71
-1495 95 -1495 62z m350 -52 c8 -7 -5 -8 -28 -2 -24 6 -42 1 -42 -12 0 -30
-37 -28 -69 4 -22 22 -13 26 50 25 41 0 82 -7 89 -15z m820 -36 c15 -24 -83
-24 -140 0 -31 13 -21 18 44 19 46 0 89 -8 96 -19z"/>
<path d="M520 881 c0 -266 75 -396 101 -175 6 51 16 98 23 104 14 15 96 -86
96 -120 0 -13 18 -40 40 -60 59 -53 75 10 29 113 -29 64 -32 88 -13 118 73
117 7 199 -157 199 l-119 0 0 -179z m190 49 c0 -26 -15 -42 -45 -46 -37 -6
-45 3 -45 46 0 43 8 52 45 46 30 -4 45 -20 45 -46z"/>
<path d="M4355 1021 c-19 -26 -18 -27 5 -6 35 31 67 33 49 3 -10 -15 0 -18 31
-8 31 10 41 7 31 -8 -7 -12 -5 -22 6 -22 11 0 25 11 31 25 8 17 15 18 23 3 6
-13 46 -20 95 -16 59 5 75 2 54 -12 -19 -12 -21 -20 -6 -20 14 0 34 17 45 39
20 36 15 38 -70 30 -50 -5 -87 -2 -81 7 19 32 -189 17 -213 -15z"/>
<path d="M5137 1042 c24 -15 24 -20 0 -35 -54 -34 -85 -87 -52 -87 17 0 35 17
40 39 8 28 22 35 53 27 23 -6 42 -6 42 0 0 21 -63 74 -86 74 -16 -1 -14 -7 3
-18z"/>
<path d="M4765 1001 c-22 -36 -18 -37 71 -29 66 7 85 4 64 -10 -21 -15 -4 -18
58 -12 48 4 96 16 106 26 12 12 -10 16 -54 11 -45 -5 -68 -1 -61 12 8 12 -16
16 -62 10 -41 -5 -80 -1 -86 10 -7 11 -23 2 -36 -18z"/>
<path d="M5321 909 c41 -43 72 -61 77 -46 8 26 -86 117 -123 117 -13 0 8 -32
46 -71z"/>
<path d="M1475 897 c-30 -11 -55 -29 -55 -39 0 -30 75 -21 109 13 53 54 40 60
-54 26z"/>
<path d="M1265 838 c-60 -72 -58 -78 30 -77 l75 1 -60 26 -60 27 50 20 c28 10
64 24 80 29 20 6 13 13 -20 19 -37 7 -62 -5 -95 -45z"/>
<path d="M5270 840 c19 -64 20 -65 60 -57 28 6 24 16 -21 57 l-54 50 15 -50z"/>
<path d="M2120 838 c-122 -49 -200 -170 -218 -338 -12 -107 -13 -110 -72 -106
-166 10 -207 15 -200 26 4 7 -26 15 -66 18 -99 8 -154 16 -154 22 0 24 -95 7
-109 -19 -15 -28 -9 -34 35 -36 30 -1 90 -7 134 -14 44 -7 139 -17 210 -22 72
-6 153 -12 180 -15 47 -4 51 3 62 116 46 479 588 485 588 7 0 -129 28 -199 32
-82 12 321 -191 535 -422 443z"/>
<path d="M2082 687 c-103 -103 -125 -220 -66 -353 127 -288 507 -102 424 207
-56 207 -227 277 -358 146z"/>
<path d="M4704 710 c-84 -70 -131 -197 -114 -308 39 -260 394 -282 442 -27 50
266 -158 478 -328 335z"/>
<path d="M1245 726 c-28 -6 -45 -23 -45 -48 0 -33 6 -36 41 -18 24 13 146 21
305 19 258 -3 334 7 334 43 0 24 -55 23 -70 -2 -7 -12 -121 -20 -272 -20 -169
0 -256 7 -248 20 7 11 10 19 6 17 -3 -1 -26 -6 -51 -11z"/>
<path d="M2660 700 c0 -11 27 -20 60 -20 33 0 60 9 60 20 0 11 -27 20 -60 20
-33 0 -60 -9 -60 -20z"/>
<path d="M5370 706 c-222 -11 -255 -86 -37 -86 46 0 90 -8 96 -18 19 -31 113
-39 125 -9 13 34 -9 128 -29 123 -8 -2 -78 -7 -155 -10z"/>
<path d="M3260 680 c0 -11 32 -20 70 -20 39 0 70 9 70 20 0 11 -31 20 -70 20
-38 0 -70 -9 -70 -20z"/>
<path d="M2636 551 l31 -112 261 5 262 6 6 95 6 95 -269 0 c-148 0 -283 5
-299 11 -25 10 -25 -3 2 -100z"/>
<path d="M1220 590 c0 -16 37 -31 100 -40 55 -8 100 -20 100 -28 0 -8 34 -11
75 -7 58 6 68 3 45 -14 -24 -17 -17 -20 30 -13 33 5 76 9 96 10 20 1 31 10 25
21 -7 10 -29 15 -51 11 -22 -4 -44 0 -49 8 -5 9 -41 14 -80 11 -39 -2 -71 2
-71 10 0 9 -22 11 -49 6 -27 -5 -76 5 -110 21 -49 25 -61 26 -61 4z"/>
<path d="M3255 547 c-5 -42 -7 -81 -4 -87 3 -5 206 -10 452 -10 l447 0 6 72
c8 93 26 89 -479 96 l-412 5 -10 -76z"/>
<path d="M5400 458 c0 -14 -32 -19 -89 -15 -49 4 -83 1 -75 -6 19 -19 304 -31
304 -13 0 18 -19 28 -85 44 -35 8 -55 5 -55 -10z"/>
<path d="M3536 385 c58 -4 148 -4 200 0 52 4 4 8 -106 8 -110 0 -152 -4 -94
-8z"/>
<path d="M2640 300 c-27 -9 371 -17 886 -18 620 -1 932 5 924 18 -15 24 -1735
24 -1810 0z"/>
<path d="M476 205 c268 -3 700 -3 960 0 261 3 42 6 -486 6 -528 0 -741 -3
-474 -6z"/>
<path d="M2510 200 c-8 -13 336 -20 1019 -20 674 0 1031 7 1031 20 0 28 -2033
28 -2050 0z"/>
<path d="M5124 185 c16 -19 127 -24 453 -20 l433 4 -380 10 -380 10 370 12
370 12 -443 -1 c-353 -2 -439 -7 -423 -27z"/>
<path d="M475 165 c267 -3 703 -3 970 0 267 3 49 6 -485 6 -533 0 -752 -3
-485 -6z"/>
</g>
</svg>
