<?xml version="1.0" standalone="no"?>
<!DOCTYPE svg PUBLIC "-//W3C//DTD SVG 20010904//EN"
 "http://www.w3.org/TR/2001/REC-SVG-20010904/DTD/svg10.dtd">
<svg version="1.0" xmlns="http://www.w3.org/2000/svg"
 width="300.000000pt" height="491.000000pt" viewBox="0 0 300.000000 491.000000"
 preserveAspectRatio="xMidYMid meet">
<metadata>
Created by potrace 1.10, written by Peter Selinger 2001-2011
</metadata>
<g transform="translate(0.000000,491.000000) scale(0.100000,-0.100000)"
fill="#000000" stroke="none">
<path d="M7 4903 c-4 -3 -7 -1108 -7 -2455 l0 -2448 1500 0 1500 0 -2 2453 -3
2452 -1491 3 c-820 1 -1494 -1 -1497 -5z m2983 -2448 l0 -2445 -285 0 c-273 0
-285 1 -276 18 10 19 89 42 145 42 61 0 92 53 35 62 -31 4 -35 24 -8 38 17 10
23 9 30 -1 6 -10 11 -6 18 14 12 32 0 67 -23 67 -15 0 -46 42 -46 63 0 26 -34
45 -135 76 -117 36 -205 55 -329 71 l-89 12 -78 67 c-176 149 -238 169 -455
152 -212 -18 -255 -31 -450 -147 -67 -40 -101 -54 -130 -55 -48 0 -132 -14
-140 -22 -4 -3 12 -27 35 -53 22 -26 41 -53 41 -60 0 -20 -33 -34 -82 -34 -38
-1 -46 -5 -66 -37 -23 -35 -23 -36 -6 -105 15 -60 20 -69 38 -66 12 1 78 -9
147 -22 116 -23 128 -27 142 -52 l16 -28 -514 0 -515 0 0 2445 0 2445 1490 0
1490 0 0 -2445z m-1269 -1785 c47 -13 136 -71 232 -153 61 -52 86 -67 110 -67
53 0 216 -29 318 -56 101 -27 101 -27 138 -108 2 -5 -20 -7 -53 -3 -34 3 -56
2 -56 -4 0 -6 26 -9 63 -8 34 1 72 -3 84 -9 37 -20 34 -14 -19 39 -27 27 -47
53 -44 56 7 8 47 -29 88 -79 l29 -38 -60 3 c-70 2 -99 -14 -67 -39 11 -8 40
-14 64 -14 38 0 43 -2 32 -15 -7 -8 -10 -24 -7 -35 5 -18 0 -20 -43 -20 -27 0
-52 -5 -56 -12 -5 -8 14 -10 75 -5 52 4 80 3 76 -3 -3 -6 -21 -10 -39 -10 -18
0 -55 -7 -82 -15 -27 -8 -50 -15 -52 -15 -1 0 0 17 4 38 17 109 -79 227 -168
205 -35 -9 -74 -40 -97 -77 -28 -45 -29 -138 -1 -184 l20 -32 -479 0 -479 0
19 37 c54 106 -15 253 -119 253 -79 0 -142 -75 -145 -171 0 -27 -2 -49 -4 -49
-2 0 -60 11 -129 25 -69 14 -130 23 -134 20 -5 -3 -11 -1 -15 5 -8 13 3 13
110 -5 50 -8 106 -18 125 -21 22 -3 31 -2 25 4 -5 5 -70 17 -142 27 -73 11
-133 23 -133 27 0 5 10 6 23 3 53 -11 249 -36 254 -32 7 8 -22 14 -154 33
-101 14 -122 20 -126 35 -5 18 4 19 138 19 110 0 145 3 154 14 7 8 8 16 4 19
-11 6 -121 16 -211 19 -83 3 -91 18 -17 31 37 6 57 4 79 -7 33 -16 193 -29
201 -16 2 4 -40 9 -94 12 -115 6 -127 10 -106 42 14 21 13 26 -14 63 -16 23
-35 44 -42 49 -20 12 19 23 90 23 58 1 71 5 145 50 173 104 295 152 376 150
14 0 -3 -7 -37 -14 -111 -24 -215 -107 -229 -182 -7 -36 -15 -41 -33 -20 -8
10 -23 12 -58 6 -27 -4 -75 -9 -108 -10 l-60 -1 54 -8 c30 -5 60 -6 68 -3 9 3
13 -3 13 -21 0 -35 39 -54 76 -37 19 8 25 17 21 31 -7 26 29 28 37 3 3 -10 21
-34 38 -53 90 -98 107 -124 119 -177 11 -46 10 -56 -2 -64 -9 -5 43 -9 136 -9
83 0 275 -3 428 -7 207 -5 277 -3 277 5 0 8 -21 12 -57 12 l-58 0 4 62 c3 35
5 95 5 134 l1 71 35 -4 c208 -24 385 -41 389 -37 2 2 2 6 0 8 -8 7 -420 47
-429 41 -6 -3 -10 -2 -10 3 0 17 -62 87 -123 139 -59 50 -86 66 -71 42 4 -7 3
-10 -2 -7 -5 2 -38 18 -74 36 -37 17 -90 34 -122 38 l-58 7 -1 -29 c-1 -29 -1
-29 -9 -4 -13 41 -11 0 5 -90 8 -47 15 -89 15 -94 0 -5 -53 -6 -122 -2 -68 3
-167 7 -220 7 -63 1 -98 5 -98 12 0 16 42 99 47 93 3 -3 -2 -15 -11 -28 -30
-43 -22 -49 62 -49 42 0 127 -3 187 -7 61 -5 114 -5 119 -1 4 4 5 48 1 98 -6
81 -9 90 -29 94 -11 3 23 4 76 2 85 -3 105 -7 159 -34 68 -34 91 -36 35 -3
-58 35 -123 52 -192 52 -46 0 -63 3 -58 11 7 12 111 6 175 -11z m-198 3 c-7
-2 -21 -2 -30 0 -10 3 -4 5 12 5 17 0 24 -2 18 -5z m19 -115 c2 -46 3 -85 2
-87 -2 -1 -50 0 -108 4 l-106 7 0 65 c0 49 4 65 16 70 9 3 11 8 6 12 -6 3 34
7 88 9 l98 3 4 -83z m206 42 c35 -16 82 -45 106 -64 36 -30 42 -40 38 -65 -3
-20 -9 -28 -20 -25 -10 2 -68 8 -131 13 -119 10 -129 14 -132 61 -1 21 -2 22
-6 4 -2 -11 0 -32 6 -46 9 -25 14 -26 118 -33 99 -6 142 -13 200 -30 14 -5 27
-1 41 13 19 19 19 19 36 -9 l16 -28 -32 5 c-18 2 -111 11 -207 19 -96 8 -176
17 -179 20 -3 3 -6 39 -6 80 0 46 -4 69 -8 58 -6 -13 -7 -11 -3 7 2 14 5 33 5
44 0 16 5 17 48 11 26 -3 75 -19 110 -35z m-425 9 c-4 -15 -9 -17 -17 -9 -8 8
-7 13 4 20 8 5 16 10 17 10 0 0 -1 -9 -4 -21z m-23 -74 l0 -55 -60 0 c-33 0
-60 2 -60 5 0 24 87 105 112 105 5 0 8 -25 8 -55z m600 -5 c25 -22 40 -40 34
-40 -6 0 -30 18 -55 40 -24 22 -39 40 -34 39 6 0 30 -18 55 -39z m58 -62 c-3
-7 -15 -13 -28 -13 -13 0 -25 6 -27 13 -3 8 6 12 27 12 21 0 30 -4 28 -12z
m-858 -49 c0 -28 -2 -30 -32 -27 -25 2 -34 8 -36 24 -3 18 1 20 28 16 18 -2
30 0 30 7 0 6 2 11 5 11 3 0 5 -14 5 -31z m870 21 c0 -5 -15 -10 -32 -9 -31 1
-32 1 -8 9 35 11 40 11 40 0z m-403 -30 c18 -5 35 -5 37 -1 3 3 67 1 143 -6
76 -6 171 -15 211 -18 l72 -7 0 -75 0 -76 -102 7 c-57 3 -209 9 -338 12 -129
3 -241 7 -248 10 -23 7 -33 -6 -22 -27 10 -17 22 -19 139 -19 70 0 130 -2 132
-4 3 -3 3 -23 1 -45 l-4 -41 -123 0 -123 0 -7 37 c-11 59 -43 113 -111 187
-35 38 -64 73 -64 78 0 12 357 1 407 -12z m-657 -159 c80 -8 77 -8 -62 -9 -93
-1 -148 2 -148 8 0 11 84 12 210 1z m275 -3 c15 -7 35 -29 46 -50 30 -60 23
-124 -21 -168 -29 -29 -99 -28 -129 4 -52 55 -47 152 10 200 34 29 55 32 94
14z m1173 -4 c33 -23 52 -67 52 -123 0 -39 -6 -56 -26 -81 -24 -28 -31 -31
-77 -28 -40 2 -54 8 -69 29 -75 101 25 270 120 203z m-970 -11 c-10 -2 -26 -2
-35 0 -10 3 -2 5 17 5 19 0 27 -2 18 -5z m280 -10 c-10 -2 -28 -2 -40 0 -13 2
-5 4 17 4 22 1 32 -1 23 -4z m970 -16 c3 -15 0 -16 -23 -7 -14 5 -49 10 -76
10 -27 0 -49 5 -49 10 0 7 27 10 72 8 60 -2 73 -6 76 -21z m-622 -11 c6 -2 8
-20 6 -40 l-4 -36 -207 0 -206 0 3 43 4 42 196 -3 c108 -2 202 -4 208 -6z"/>
<path d="M1288 4870 c-35 -27 -45 -77 -24 -118 9 -17 21 -32 28 -35 7 -3 -189
-6 -435 -6 -424 -1 -447 0 -438 17 7 12 4 24 -10 41 -10 13 -19 36 -19 51 0
61 -90 84 -129 34 -12 -15 -21 -37 -21 -49 0 -31 54 -75 90 -75 16 0 32 -4 35
-10 4 -6 -34 -10 -107 -10 -113 0 -113 0 -85 18 61 41 73 87 32 127 -18 19
-35 25 -68 25 -108 0 -135 -103 -39 -147 l37 -18 -57 -3 c-32 -2 -58 -7 -58
-12 0 -6 552 -10 1480 -10 960 0 1480 3 1480 10 0 6 -83 11 -215 12 -188 3
-213 5 -205 18 8 12 11 13 19 1 7 -10 28 -12 97 -7 120 8 121 8 183 2 42 -4
59 -2 72 10 24 22 23 90 -2 115 -21 21 -54 25 -64 9 -5 -8 -11 -7 -21 1 -12
10 -19 8 -38 -10 -20 -19 -24 -20 -36 -6 -7 8 -16 12 -21 10 -4 -3 -17 0 -28
7 -14 9 -26 9 -43 1 -16 -7 -28 -7 -40 0 -12 8 -24 8 -42 -1 -29 -13 -33 -33
-11 -52 12 -10 13 -16 4 -26 -20 -24 -29 -15 -29 30 0 48 -12 63 -58 72 -45 9
-82 -17 -83 -59 -1 -21 -3 -25 -6 -12 -3 11 -9 24 -14 30 -13 13 -181 15 -196
2 -9 -7 -13 -5 -13 6 0 8 -7 20 -16 28 -13 11 -19 10 -37 -1 -12 -7 -46 -26
-74 -42 -51 -28 -53 -28 -54 -9 -3 38 -4 42 -19 51 -22 14 -124 12 -138 -2 -7
-7 -12 -23 -13 -38 l-1 -25 -9 27 c-12 32 -29 40 -98 43 -46 2 -58 -1 -79 -22
-18 -18 -22 -30 -17 -51 11 -45 15 -78 9 -62 -4 8 -12 22 -19 30 -7 8 -17 35
-22 60 l-9 45 -54 3 c-93 5 -127 -16 -95 -61 8 -12 15 -38 15 -57 0 -20 5 -41
12 -48 9 -9 -1 -12 -45 -12 l-58 0 21 22 c27 29 28 108 2 131 -31 28 -74 31
-104 7z m79 -12 c44 -41 21 -138 -32 -138 -30 0 -65 44 -65 82 0 30 38 78 61
78 7 0 23 -10 36 -22z m112 -10 c0 -18 -3 -27 -6 -20 -2 6 -9 10 -14 6 -5 -3
-9 4 -9 16 0 12 5 18 10 15 6 -3 10 -1 10 4 0 6 2 11 5 11 3 0 5 -15 4 -32z
m103 -48 l-4 -80 -44 0 -44 0 0 80 0 80 48 0 47 0 -3 -80z m588 0 c0 -57 -4
-80 -12 -80 -9 0 -13 23 -13 80 -1 59 2 80 12 80 10 0 13 -21 13 -80z m340 70
c0 -5 6 -10 14 -10 11 0 15 -16 15 -70 l0 -70 -49 0 -50 0 0 65 c0 39 5 72 13
80 14 16 57 20 57 5z m-2162 -16 c15 -10 22 -25 22 -48 0 -19 7 -39 15 -46 16
-13 21 -40 7 -40 -4 0 -13 9 -20 21 -10 15 -19 19 -40 14 -20 -4 -34 0 -50 15
-29 28 -28 54 4 79 32 25 33 25 62 5z m1446 -3 c11 -13 12 -27 3 -73 -6 -32
-14 -58 -19 -58 -4 0 -8 5 -8 11 0 5 -5 7 -10 4 -6 -4 -29 -8 -51 -9 -32 -3
-39 0 -34 12 3 8 1 20 -5 26 -14 18 -16 72 -2 89 17 20 107 19 126 -2z m191
-15 c1 -33 -19 -43 -80 -41 -39 1 -40 2 -43 39 l-3 37 62 -3 c61 -3 62 -4 64
-32z m-1804 14 c29 -16 25 -66 -8 -95 -32 -28 -43 -31 -43 -11 0 8 -12 16 -27
18 -37 4 -50 51 -22 79 21 21 69 25 100 9z m1950 -66 c-3 -73 -11 -85 -11 -16
0 27 -3 58 -7 68 -4 11 -2 15 7 12 10 -3 13 -21 11 -64z m510 50 c11 -14 11
-21 -3 -45 -14 -24 -15 -29 -3 -29 8 0 15 -4 15 -10 0 -5 -13 -10 -30 -10 -35
0 -36 4 -10 37 11 14 20 32 20 41 0 9 -7 13 -20 9 -22 -6 -28 8 -7 16 20 9 24
8 38 -9z m77 4 c17 -17 15 -43 -4 -59 -14 -12 -13 -14 8 -23 22 -10 22 -10
-10 -14 -44 -5 -49 1 -23 34 27 35 28 58 1 51 -22 -6 -28 8 -7 16 19 8 22 8
35 -5z m125 -85 c-6 -15 -23 -17 -23 -3 0 6 -9 10 -20 10 -27 0 -25 16 7 59
l28 36 6 -45 c3 -25 4 -51 2 -57z m73 83 c15 -12 16 -17 7 -27 -9 -9 -10 -16
-2 -26 18 -21 2 -45 -28 -41 -25 3 -28 7 -28 43 -1 38 9 65 24 65 4 0 16 -6
27 -14z m-670 -8 c17 -24 11 -72 -10 -76 -10 -2 -23 1 -29 7 -8 8 -5 11 11 11
23 0 32 19 10 21 -10 0 -10 2 0 6 17 7 15 23 -3 23 -8 0 -15 5 -15 10 0 14 26
12 36 -2z m64 -2 c17 -22 8 -59 -18 -72 -33 -16 -17 -21 61 -19 51 2 67 -1 67
-11 0 -11 -24 -14 -119 -14 -114 0 -119 1 -114 20 4 16 9 18 24 9 20 -10 59 3
59 21 0 6 8 10 18 10 16 1 16 1 0 11 -25 14 -23 59 2 59 4 0 13 -7 20 -14z
m70 4 c5 8 12 11 16 7 4 -3 2 -13 -5 -20 -9 -11 -8 -17 3 -26 8 -7 12 -19 9
-27 -7 -20 -33 -17 -33 4 -1 16 -1 16 -14 0 -17 -24 -29 -23 -17 0 7 13 7 22
-1 30 -6 6 -8 18 -4 27 5 14 9 15 22 4 13 -10 17 -10 24 1z m382 -22 c-9 -9
-12 -7 -12 12 0 19 3 21 12 12 9 -9 9 -15 0 -24z m-661 9 c-1 -4 -1 -27 -1
-52 0 -25 -4 -45 -10 -45 -5 0 -10 25 -10 56 0 35 4 54 11 52 6 -2 10 -7 10
-11z m-237 -69 l7 -38 -36 0 c-26 0 -34 3 -29 12 4 7 9 23 10 36 2 14 6 32 9
40 9 24 31 -5 39 -50z m206 11 c0 -21 -4 -39 -9 -39 -9 0 -20 77 -12 85 11 12
21 -10 21 -46z m-34 -7 c1 -21 -3 -32 -12 -32 -9 0 -14 12 -14 36 0 45 24 41
26 -4z m-425 14 c5 3 9 -4 9 -14 0 -11 -7 -22 -15 -26 -12 -4 -15 2 -14 27 0
18 3 26 6 19 2 -6 9 -10 14 -6z m301 2 c7 -21 -4 -58 -17 -58 -16 0 -25 46
-12 59 14 14 24 14 29 -1z m52 -10 c6 -26 -9 -47 -24 -32 -10 10 -2 54 10 54
4 0 10 -10 14 -22z m803 -4 c-9 -9 -28 6 -21 18 4 6 10 6 17 -1 6 -6 8 -13 4
-17z m-1112 -34 c3 -5 -3 -10 -15 -10 -12 0 -18 5 -15 10 3 6 10 10 15 10 5 0
12 -4 15 -10z m340 0 c3 -5 -1 -10 -10 -10 -9 0 -13 5 -10 10 3 6 8 10 10 10
2 0 7 -4 10 -10z"/>
<path d="M1330 4847 c0 -10 5 -17 11 -17 5 0 7 -5 4 -10 -5 -8 -11 -7 -21 1
-8 6 -18 9 -21 5 -4 -4 -1 -11 7 -16 12 -7 12 -12 2 -22 -6 -6 -12 -16 -12
-22 0 -6 5 -5 12 2 7 7 19 12 28 11 10 0 11 -2 3 -6 -7 -2 -13 -12 -13 -20 0
-14 3 -13 20 2 19 17 19 20 5 28 -15 8 -15 10 -1 26 15 16 14 19 -4 36 -18 16
-20 16 -20 2z"/>
<path d="M1500 4800 l0 -60 35 0 35 0 0 60 0 60 -35 0 -35 0 0 -60z m40 5 c0
-19 -4 -35 -10 -35 -11 0 -14 53 -3 63 11 12 13 8 13 -28z"/>
<path d="M2455 4800 c-7 -11 39 -25 54 -15 6 3 11 10 11 16 0 12 -57 12 -65
-1z"/>
<path d="M296 4834 c-20 -19 -20 -29 0 -48 19 -19 26 -20 42 -4 18 18 14 46
-7 58 -15 7 -23 6 -35 -6z m34 -24 c0 -5 -5 -10 -11 -10 -5 0 -7 5 -4 10 3 6
8 10 11 10 2 0 4 -4 4 -10z"/>
<path d="M1698 4839 c-20 -11 -23 -41 -8 -70 16 -29 65 -25 86 6 15 23 15 27
0 50 -17 26 -48 32 -78 14z m45 -20 c3 -12 10 -18 16 -14 6 3 11 -1 11 -9 0
-9 -4 -16 -9 -16 -25 0 -41 14 -41 36 0 30 16 32 23 3z"/>
<path d="M1891 4846 c-16 -20 -11 -27 22 -30 19 -2 23 1 19 16 -2 10 0 18 6
18 6 0 13 -10 15 -22 4 -20 4 -19 6 5 1 31 -25 38 -36 10 -6 -15 -7 -15 -13 1
-5 16 -7 17 -19 2z"/>
<path d="M100 4820 c0 -5 16 -10 35 -10 19 0 35 5 35 10 0 6 -16 10 -35 10
-19 0 -35 -4 -35 -10z"/>
<path d="M113 4793 c9 -2 23 -2 30 0 6 3 -1 5 -18 5 -16 0 -22 -2 -12 -5z"/>
<path d="M2805 4791 c-3 -5 -1 -12 5 -16 5 -3 10 1 10 9 0 18 -6 21 -15 7z"/>
<path d="M2882 4819 c2 -6 8 -10 13 -10 5 0 11 4 13 10 2 6 -4 11 -13 11 -9 0
-15 -5 -13 -11z"/>
<path d="M2886 4783 c-11 -11 -6 -23 9 -23 8 0 15 4 15 9 0 13 -16 22 -24 14z"/>
<path d="M2282 4811 c4 -13 18 -16 19 -4 0 4 -5 9 -11 12 -7 2 -11 -2 -8 -8z"/>
<path d="M1726 4609 c-97 -16 -127 -147 -48 -209 27 -22 100 -27 132 -10 13 7
21 7 25 0 8 -13 92 -13 100 0 5 8 11 8 20 0 8 -7 59 -10 140 -8 108 3 130 6
139 20 8 13 5 22 -13 42 -21 22 -23 29 -13 51 18 39 14 69 -11 93 -19 18 -35
22 -90 22 -63 0 -67 -1 -73 -26 -4 -14 -2 -30 5 -37 6 -6 11 -31 10 -56 l-1
-46 -16 35 c-8 19 -15 53 -15 75 0 22 -4 43 -11 47 -6 4 -34 8 -63 8 -55 0
-66 -11 -59 -55 4 -24 -13 -75 -24 -75 -4 0 -13 6 -19 14 -9 10 -8 15 4 20 18
7 21 69 3 84 -18 13 -75 19 -122 11z m114 -56 c0 -38 -18 -43 -45 -13 -43 48
-114 5 -100 -60 12 -53 73 -68 101 -25 19 29 32 32 41 9 3 -8 -4 -25 -17 -40
-34 -35 -107 -34 -141 2 -34 36 -34 102 0 138 22 24 31 26 93 24 l68 -2 0 -33z
m159 22 c0 -5 -5 -9 -11 -7 -10 3 -8 -7 21 -83 14 -38 24 -51 42 -53 23 -3 24
0 24 63 0 55 -3 65 -17 65 -10 0 -18 7 -18 15 0 12 14 15 68 15 40 0 73 -5 80
-12 19 -19 15 -66 -7 -78 -19 -10 -19 -11 -3 -40 9 -16 23 -30 30 -30 6 0 12
-7 12 -15 0 -9 -9 -15 -25 -15 -20 0 -30 9 -47 45 -12 25 -26 45 -30 45 -15 0
-8 -58 7 -64 8 -3 15 -10 15 -16 0 -6 -33 -10 -85 -10 -67 0 -85 3 -85 14 0 8
5 16 11 18 22 7 -3 35 -31 35 -28 0 -53 -28 -31 -35 6 -2 11 -10 11 -18 0 -10
-13 -14 -45 -14 -47 0 -58 12 -27 29 10 5 26 33 36 63 9 29 20 59 23 66 3 7
-1 11 -7 10 -7 -2 -15 3 -17 10 -4 10 8 12 51 10 31 -2 56 -7 55 -13z m-210
-52 c18 -15 18 -18 5 -39 -19 -28 -43 -38 -60 -23 -14 12 -19 60 -7 72 12 12
42 7 62 -10z"/>
<path d="M2110 4535 c0 -26 7 -29 34 -19 27 10 20 44 -9 44 -20 0 -25 -5 -25
-25z"/>
<path d="M1940 4536 c0 -8 -3 -21 -6 -30 -4 -12 0 -16 16 -16 16 0 20 4 16 16
-3 9 -6 22 -6 30 0 8 -4 14 -10 14 -5 0 -10 -6 -10 -14z"/>
<path d="M2670 4495 l0 -126 83 3 82 3 3 38 c2 21 -1 37 -7 37 -6 0 -11 -13
-11 -30 l0 -30 -65 0 -65 0 0 105 0 105 65 0 65 0 0 -30 c0 -16 5 -30 11 -30
6 0 9 16 7 38 l-3 37 -82 3 -83 3 0 -126z"/>
<path d="M127 4552 c-26 -26 -47 -53 -47 -59 0 -21 88 -105 107 -101 29 5 25
31 -11 68 l-34 35 35 37 c23 23 33 42 30 52 -10 26 -30 18 -80 -32z m34 -16
l-41 -40 42 -43 c23 -23 39 -46 35 -50 -4 -4 -30 15 -57 42 l-50 49 47 48 c25
26 51 44 56 41 5 -3 -9 -24 -32 -47z"/>
<path d="M830 4567 c-49 -25 -60 -88 -22 -130 11 -13 27 -17 56 -15 39 3 41 4
44 41 3 35 2 37 -27 37 -17 0 -31 -4 -31 -10 0 -5 9 -10 20 -10 13 0 20 -7 20
-20 0 -15 -7 -20 -28 -20 -34 0 -52 16 -52 46 0 54 31 81 74 64 21 -7 26 -6
26 5 0 8 -6 15 -14 15 -8 0 -20 2 -28 5 -7 3 -24 -1 -38 -8z"/>
<path d="M940 4495 l0 -75 45 0 c25 0 45 5 45 10 0 6 -15 10 -34 10 -29 0 -33
3 -33 25 0 21 4 25 28 25 16 0 29 5 29 10 0 6 -13 10 -28 10 -21 0 -28 5 -29
20 -1 16 4 20 28 20 16 0 29 5 29 10 0 6 -18 10 -40 10 l-40 0 0 -75z"/>
<path d="M1040 4560 c0 -5 9 -10 20 -10 18 0 20 -7 20 -65 0 -37 4 -65 10 -65
6 0 10 28 10 65 0 63 1 65 25 65 14 0 25 5 25 10 0 6 -25 10 -55 10 -30 0 -55
-4 -55 -10z"/>
<path d="M1170 4496 c0 -54 4 -76 13 -76 8 0 11 17 9 57 l-3 58 20 -25 c11
-14 28 -40 38 -57 10 -18 24 -33 33 -33 12 0 15 15 15 75 0 57 -3 75 -14 75
-10 0 -12 -13 -9 -55 3 -30 2 -55 -1 -55 -3 0 -20 24 -36 53 -17 28 -38 53
-48 55 -15 3 -17 -6 -17 -72z"/>
<path d="M1330 4495 l0 -75 46 0 c27 0 43 4 39 10 -3 6 -19 10 -36 10 -24 0
-29 4 -29 25 0 21 5 25 30 25 17 0 30 5 30 10 0 6 -13 10 -30 10 -23 0 -30 4
-30 20 0 16 7 20 30 20 17 0 30 5 30 10 0 6 -18 10 -40 10 l-40 0 0 -75z"/>
<path d="M1430 4563 c0 -5 8 -37 18 -73 24 -83 43 -89 61 -19 15 56 25 52 36
-14 11 -60 35 -45 57 36 11 38 17 71 14 74 -12 12 -25 -11 -32 -52 -6 -44 -24
-73 -24 -39 0 32 -23 94 -36 94 -6 0 -18 -26 -26 -57 l-15 -58 -12 45 c-7 25
-14 51 -16 58 -5 13 -25 17 -25 5z"/>
<path d="M2876 4525 l16 -24 -74 -4 -73 -3 73 -2 c39 -1 72 -5 72 -9 0 -3 -8
-15 -17 -26 -14 -16 -15 -19 -3 -15 8 2 21 16 29 30 13 23 13 29 -2 52 -10 14
-22 26 -27 26 -6 0 -3 -11 6 -25z"/>
<path d="M25 4310 c-4 -7 490 -10 1475 -10 985 0 1479 3 1475 10 -4 7 -507 10
-1475 10 -968 0 -1471 -3 -1475 -10z"/>
<path d="M1500 4055 l0 -205 705 0 c463 0 705 3 705 10 0 7 -240 10 -700 10
l-700 0 0 185 0 185 695 0 695 0 2 -182 2 -183 6 170 c3 94 3 180 1 193 l-3
22 -704 0 -704 0 0 -205z"/>
<path d="M107 4103 c-11 -10 -8 -113 3 -113 6 0 10 23 10 50 0 47 2 50 25 50
14 0 25 5 25 10 0 11 -53 14 -63 3z"/>
<path d="M1640 4095 c-7 -8 -9 -19 -5 -23 4 -4 10 -1 12 6 6 17 33 15 33 -2 0
-8 -11 -28 -25 -44 -14 -17 -25 -33 -25 -36 0 -3 16 -6 35 -6 19 0 35 5 35 11
0 6 -9 9 -20 6 -25 -7 -25 -3 2 34 17 23 20 34 12 47 -15 23 -38 26 -54 7z"/>
<path d="M1726 4094 c-31 -30 -13 -104 25 -104 37 0 50 91 16 112 -17 11 -24
10 -41 -8z m39 -45 c0 -24 -5 -34 -15 -34 -16 0 -25 37 -16 62 10 26 31 8 31
-28z"/>
<path d="M1908 4075 c-34 -49 -35 -55 -4 -55 15 0 26 -7 29 -17 4 -17 5 -17 6
0 0 9 7 17 14 17 9 0 9 2 0 8 -6 4 -13 25 -15 47 l-3 40 -27 -40z m22 -20 c0
-16 -6 -25 -15 -25 -18 0 -19 4 -3 30 16 26 18 25 18 -5z"/>
<path d="M1812 4093 c13 -3 18 -18 21 -56 l3 -52 2 58 c2 53 1 57 -20 56 -17
-1 -18 -3 -6 -6z"/>
<path d="M169 4059 c-8 -16 -8 -28 0 -45 18 -41 71 -25 71 21 0 44 -50 61 -71
24z m51 -24 c0 -25 -23 -35 -35 -15 -10 16 2 40 20 40 9 0 15 -9 15 -25z"/>
<path d="M257 4048 c-3 -18 -8 -44 -11 -58 -3 -14 -4 -19 0 -12 3 6 18 12 34
12 16 0 31 -6 34 -12 4 -7 4 2 1 21 -3 18 -5 44 -5 57 0 19 -5 24 -24 24 -19
0 -25 -6 -29 -32z m43 -13 c0 -16 -6 -25 -15 -25 -9 0 -15 9 -15 25 0 16 6 25
15 25 9 0 15 -9 15 -25z"/>
<path d="M370 4034 c0 -45 0 -45 33 -42 28 3 32 7 32 33 0 39 -12 55 -41 55
-22 0 -24 -4 -24 -46z m50 16 c0 -5 -9 -10 -20 -10 -11 0 -20 5 -20 10 0 6 9
10 20 10 11 0 20 -4 20 -10z m0 -30 c0 -5 -9 -10 -20 -10 -11 0 -20 5 -20 10
0 6 9 10 20 10 11 0 20 -4 20 -10z"/>
<path d="M450 4040 c0 -44 20 -61 49 -43 24 15 20 47 -6 51 -13 2 -23 10 -23
18 0 8 -4 14 -10 14 -5 0 -10 -18 -10 -40z m50 -21 c0 -5 -7 -9 -15 -9 -8 0
-15 7 -15 15 0 9 6 12 15 9 8 -4 15 -10 15 -15z"/>
<path d="M530 4035 c0 -25 5 -45 10 -45 6 0 10 20 10 45 0 25 -4 45 -10 45 -5
0 -10 -20 -10 -45z"/>
<path d="M567 4073 c-11 -10 -8 -71 3 -78 6 -4 10 8 10 29 0 28 4 36 18 36 15
0 18 -6 14 -29 -2 -16 1 -32 7 -35 7 -5 11 8 11 38 0 44 -1 46 -28 46 -16 0
-32 -3 -35 -7z"/>
<path d="M640 4075 c0 -3 7 -22 15 -42 14 -33 14 -38 -1 -55 -15 -16 -15 -18
-1 -18 16 0 63 107 52 118 -3 3 -10 -10 -16 -28 l-12 -32 -13 31 c-12 27 -24
41 -24 26z"/>
<path d="M721 4058 c-12 -33 2 -63 29 -63 13 0 25 5 27 11 2 6 -7 10 -19 10
-14 -1 -24 6 -26 18 -5 24 18 38 37 23 11 -10 13 -9 9 3 -8 26 -47 24 -57 -2z"/>
<path d="M803 4035 c0 -27 2 -40 4 -27 5 28 14 28 31 1 7 -12 16 -19 18 -16 3
3 0 14 -8 26 -10 16 -10 23 0 33 23 23 12 31 -12 9 l-24 -23 -5 24 c-2 12 -4
1 -4 -27z"/>
<path d="M880 4065 c-8 -9 -9 -15 -2 -15 6 0 14 5 17 10 4 6 11 8 16 5 16 -11
10 -24 -13 -27 -15 -2 -23 -10 -23 -23 0 -16 7 -20 33 -21 31 -1 32 1 32 36 0
25 -5 40 -16 44 -23 9 -30 8 -44 -9z m40 -45 c0 -5 -7 -10 -15 -10 -8 0 -15 5
-15 10 0 6 7 10 15 10 8 0 15 -4 15 -10z"/>
<path d="M950 4070 c0 -5 7 -10 16 -10 8 0 12 5 9 10 -3 6 -10 10 -16 10 -5 0
-9 -4 -9 -10z"/>
<path d="M950 4000 c0 -5 4 -10 9 -10 6 0 13 5 16 10 3 6 -1 10 -9 10 -9 0
-16 -4 -16 -10z"/>
<path d="M1507 3733 c-4 -3 -7 -96 -7 -205 l0 -198 705 0 c557 0 705 3 706 13
2 60 -3 362 -6 366 -3 2 -5 -80 -5 -182 l0 -187 -695 0 -695 0 0 190 0 190
701 0 c440 0 698 4 694 10 -6 10 -1388 14 -1398 3z"/>
<path d="M405 3621 c-36 -21 -47 -78 -20 -101 23 -19 50 0 50 36 0 22 -6 30
-25 35 l-25 6 28 11 c15 6 27 16 27 22 0 12 2 13 -35 -9z m23 -64 c4 -20 -25
-34 -40 -19 -15 15 -1 44 19 40 10 -2 19 -11 21 -21z"/>
<path d="M107 3624 c-11 -11 -8 -102 3 -109 6 -4 10 13 10 44 0 48 2 51 25 51
23 0 25 -4 25 -45 0 -25 5 -45 11 -45 6 0 9 21 7 53 -3 52 -3 52 -38 55 -20 2
-39 0 -43 -4z"/>
<path d="M209 3598 c-7 -18 -5 -109 2 -114 5 -3 9 3 9 14 0 13 7 18 23 18 19
-1 22 4 22 39 0 36 -3 40 -27 43 -16 2 -29 2 -29 0z m49 -42 c-4 -31 -38 -34
-38 -3 0 29 7 37 27 30 8 -3 13 -15 11 -27z"/>
<path d="M290 3580 c-14 -27 -4 -57 21 -65 25 -8 49 11 49 39 0 45 -50 63 -70
26z m53 -36 c-8 -20 -37 -13 -41 10 -5 26 20 40 35 20 6 -9 9 -22 6 -30z"/>
<path d="M460 3585 c-29 -34 22 -97 53 -66 8 8 4 11 -16 11 -22 0 -27 5 -27
24 0 27 15 42 25 26 3 -5 1 -10 -4 -10 -6 0 -11 -5 -11 -11 0 -6 8 -9 18 -7 9
2 17 12 17 23 0 25 -37 32 -55 10z"/>
<path d="M530 3561 c0 -22 5 -43 10 -46 6 -4 10 8 10 29 0 25 4 36 15 36 8 0
15 5 15 10 0 6 -11 10 -25 10 -22 0 -25 -4 -25 -39z"/>
<path d="M590 3590 c0 -5 7 -10 16 -10 8 0 12 5 9 10 -3 6 -10 10 -16 10 -5 0
-9 -4 -9 -10z"/>
<path d="M1640 3575 c-7 -9 -9 -19 -5 -23 4 -4 10 -1 12 6 3 6 11 12 19 12 22
0 16 -34 -11 -60 -13 -12 -22 -27 -19 -31 7 -12 61 -11 69 1 4 6 -5 10 -21 10
l-27 0 21 23 c25 26 28 47 10 65 -16 16 -33 15 -48 -3z"/>
<path d="M1738 3552 c-34 -51 -34 -52 -3 -52 16 0 25 -6 25 -16 0 -8 5 -12 10
-9 6 4 8 11 5 16 -4 5 -1 9 6 9 8 0 8 4 1 13 -6 6 -12 28 -14 46 l-3 35 -27
-42z m18 -39 c-11 -11 -19 6 -11 24 8 17 8 17 12 0 3 -10 2 -21 -1 -24z"/>
<path d="M590 3520 c0 -5 4 -10 9 -10 6 0 13 5 16 10 3 6 -1 10 -9 10 -9 0
-16 -4 -16 -10z"/>
<path d="M1500 3055 l0 -205 705 0 705 0 1 80 c0 44 0 103 0 130 0 28 0 84 0
125 l-1 75 -705 0 -705 0 0 -205z m1400 0 l0 -185 -695 -2 -695 -3 0 188 0
187 695 0 695 0 0 -185z"/>
<path d="M1647 3103 c-4 -3 -7 -18 -7 -33 0 -21 5 -26 21 -26 12 1 24 -5 26
-11 6 -17 -27 -29 -37 -13 -5 7 -10 8 -14 2 -8 -14 19 -34 41 -30 12 2 19 14
21 35 3 27 -1 33 -22 39 -29 7 -25 24 5 24 10 0 19 5 19 10 0 11 -43 14 -53 3z"/>
<path d="M1720 3091 c-23 -45 -1 -107 36 -99 15 2 20 13 22 52 2 33 -1 52 -10
57 -21 14 -37 10 -48 -10z m48 -44 c3 -32 0 -37 -17 -37 -17 0 -21 6 -21 33 0
61 33 63 38 4z"/>
<path d="M1812 3098 c-6 -6 -12 -29 -12 -49 0 -62 52 -80 66 -23 14 54 -23
103 -54 72z m38 -46 c0 -45 -8 -56 -27 -41 -13 12 -18 61 -6 72 18 19 33 5 33
-31z"/>
<path d="M1892 3098 c-7 -7 -12 -29 -12 -49 0 -73 62 -78 68 -5 5 54 -26 84
-56 54z m46 -44 c4 -42 -22 -64 -38 -34 -16 30 -4 72 18 68 11 -2 18 -14 20
-34z"/>
<path d="M1970 3084 c-21 -54 -1 -102 38 -90 19 6 22 15 22 56 0 34 -4 50 -16
54 -27 10 -34 7 -44 -20z m45 -34 c0 -25 -5 -36 -17 -38 -15 -3 -18 4 -18 38
0 34 3 41 18 38 12 -2 17 -13 17 -38z"/>
<path d="M2063 3103 c-8 -3 -13 -24 -13 -53 0 -40 4 -50 20 -55 30 -10 50 12
50 54 0 50 -20 69 -57 54z m35 -57 c3 -32 1 -37 -15 -34 -19 3 -29 38 -19 65
10 26 31 8 34 -31z"/>
<path d="M107 3099 c-5 -9 -7 -36 -5 -60 3 -42 4 -44 38 -47 19 -2 38 -9 42
-15 12 -20 15 -3 10 66 -5 78 -22 91 -22 17 0 -46 -2 -50 -24 -50 -23 0 -25 4
-28 53 -2 34 -6 46 -11 36z"/>
<path d="M210 3060 c-6 -11 -8 -29 -5 -40 7 -23 43 -36 58 -21 8 8 4 11 -16
11 -15 0 -27 5 -27 10 0 6 12 10 26 10 21 0 25 4 22 23 -4 30 -43 35 -58 7z
m45 0 c3 -5 -3 -10 -15 -10 -12 0 -18 5 -15 10 3 6 10 10 15 10 5 0 12 -4 15
-10z"/>
<path d="M291 3078 c-6 -18 -4 -79 2 -85 4 -3 7 3 7 15 0 31 37 30 43 0 2 -13
4 0 4 27 0 28 -2 40 -4 28 -3 -14 -12 -23 -23 -23 -11 0 -20 9 -23 23 -2 12
-5 19 -6 15z"/>
<path d="M377 3074 c-14 -14 -7 -26 8 -14 8 6 19 9 25 5 19 -11 10 -25 -16
-25 -21 0 -25 -4 -22 -22 2 -17 10 -23 31 -24 27 -1 28 1 25 40 -2 32 -7 42
-23 44 -12 2 -24 0 -28 -4z m43 -53 c0 -11 -26 -22 -34 -14 -12 12 -5 23 14
23 11 0 20 -4 20 -9z"/>
<path d="M450 3070 c0 -5 5 -10 10 -10 6 0 10 5 10 10 0 6 -4 10 -10 10 -5 0
-10 -4 -10 -10z"/>
<path d="M450 3000 c0 -5 5 -10 10 -10 6 0 10 5 10 10 0 6 -4 10 -10 10 -5 0
-10 -4 -10 -10z"/>
<path d="M1228 2610 c4 -29 31 -48 52 -35 6 4 10 -5 10 -19 0 -14 4 -26 9 -26
4 0 9 25 9 55 0 30 -4 55 -9 55 -5 0 -9 -12 -9 -26 0 -21 -4 -25 -22 -22 -15
2 -24 11 -26 26 -2 12 -7 22 -11 22 -4 0 -6 -13 -3 -30z"/>
<path d="M1338 2609 c-21 -12 -24 -49 -6 -67 15 -15 45 -16 54 -1 4 7 0 9 -13
5 -12 -4 -25 -1 -33 9 -11 13 -8 15 19 15 32 0 41 16 19 38 -14 14 -18 14 -40
1z m32 -19 c0 -5 -7 -10 -15 -10 -8 0 -15 5 -15 10 0 6 7 10 15 10 8 0 15 -4
15 -10z"/>
<path d="M1442 2600 c-14 -23 -34 -27 -26 -5 4 8 1 15 -5 15 -6 0 -11 -17 -11
-40 0 -22 5 -40 10 -40 6 0 10 10 10 23 l0 22 19 -24 c25 -33 55 -25 59 17 5
46 32 43 32 -3 0 -19 5 -35 10 -35 6 0 10 18 10 39 0 31 -4 41 -20 46 -28 9
-40 -2 -40 -35 0 -36 -17 -47 -38 -26 -14 14 -14 17 1 34 9 10 17 22 17 25 0
14 -16 6 -28 -13z"/>
<path d="M1658 2609 c-34 -19 -16 -79 23 -79 20 0 35 18 24 28 -3 3 -10 0 -14
-7 -12 -19 -31 -4 -31 25 0 26 18 32 38 12 7 -7 12 -8 12 -2 0 11 -20 34 -29
34 -4 0 -14 -5 -23 -11z"/>
<path d="M1720 2609 c0 -5 5 -9 10 -9 6 0 10 -16 10 -35 0 -19 5 -35 11 -35 7
0 10 14 7 35 -3 30 -1 35 16 35 10 0 16 3 12 7 -11 11 -66 12 -66 2z"/>
<path d="M1560 2569 c0 -28 4 -39 13 -36 6 2 12 9 11 15 -1 7 -2 23 -2 37 -3
42 -22 28 -22 -16z"/>
<path d="M1600 2591 c-14 -28 -12 -35 6 -20 13 11 14 9 9 -14 -5 -17 -3 -27 4
-27 6 0 11 17 11 40 0 43 -13 52 -30 21z"/>
<path d="M463 2323 c197 -2 517 -2 710 0 194 1 33 2 -358 2 -390 0 -549 -1
-352 -2z"/>
<path d="M1703 2323 c97 -2 257 -2 355 0 97 1 17 2 -178 2 -195 0 -275 -1
-177 -2z"/>
<path d="M2382 2323 c82 -2 214 -2 296 0 81 1 14 3 -148 3 -162 0 -229 -2
-148 -3z"/>
<path d="M1115 2143 c-39 -10 -83 -53 -100 -98 -22 -56 -16 -135 13 -174 l21
-28 -105 -6 c-57 -2 -110 -10 -117 -15 -8 -7 -33 -8 -70 -3 -45 6 -57 5 -57
-6 0 -9 15 -13 48 -13 27 0 57 -7 70 -16 26 -18 22 -29 -32 -88 -20 -21 -34
-41 -32 -44 3 -2 46 -9 96 -14 86 -9 97 -13 189 -68 55 -32 122 -70 149 -84
69 -35 202 -56 364 -59 151 -2 184 7 285 83 53 41 70 49 57 28 -4 -7 -3 -8 5
-4 6 4 9 11 6 16 -5 9 109 112 116 105 7 -6 194 21 276 40 162 37 284 90 267
116 -2 5 14 26 36 48 32 31 41 46 38 68 -2 23 -8 27 -33 28 -23 0 -30 5 -30
20 0 13 8 21 23 23 28 4 41 30 21 43 -8 5 -28 9 -45 9 -17 0 -52 6 -77 14 -26
8 -47 11 -47 7 0 -14 50 -31 90 -31 21 0 45 -3 54 -6 34 -13 13 -19 -56 -18
-48 1 -55 0 -21 -3 50 -4 52 -5 40 -24 -10 -17 -9 -23 12 -40 l23 -19 -52 0
c-111 0 -117 -49 -6 -51 33 -1 52 -4 41 -6 -10 -3 -29 -12 -40 -19 -12 -8 -25
-11 -29 -7 -3 4 -29 6 -56 4 l-50 -3 22 44 c31 59 31 151 0 195 -29 41 -85 67
-128 59 -39 -8 -89 -47 -109 -87 -22 -41 -19 -147 4 -183 40 -61 115 -83 171
-51 29 16 150 20 150 5 0 -5 -4 -10 -9 -10 -5 0 -16 -15 -24 -33 -16 -32 -21
-34 -133 -61 -65 -15 -164 -34 -221 -41 -56 -7 -108 -17 -114 -21 -7 -4 -19 3
-29 16 -17 22 -19 22 -96 12 -43 -6 -121 -14 -172 -18 -51 -4 -95 -12 -99 -18
-4 -6 -14 -50 -23 -98 l-17 -88 48 0 c27 0 72 9 101 20 60 23 78 19 22 -5 -43
-18 -63 -22 -142 -29 -42 -4 -52 -2 -49 9 3 7 13 60 23 118 l18 105 96 7 c52
3 133 10 180 16 47 5 100 9 118 9 l32 0 -16 -27 -16 -28 26 28 c25 27 32 29
214 48 195 20 238 26 229 35 -4 5 -206 -13 -367 -31 l-45 -5 3 65 c3 42 0 65
-7 65 -7 0 -11 -25 -11 -64 l0 -64 -87 -7 c-49 -4 -145 -13 -215 -19 l-128
-11 0 81 0 82 138 6 c75 4 189 9 252 12 63 3 116 7 118 9 10 10 -12 25 -39 25
-27 0 -29 2 -29 40 l0 40 55 0 c30 0 55 5 55 10 0 10 -790 5 -838 -6 -19 -4
-21 -8 -12 -18 6 -8 9 -25 7 -38 -2 -12 1 -9 6 8 l10 31 126 6 c69 3 126 5
127 4 1 -1 4 -21 7 -43 l5 -42 -134 -7 c-96 -5 -137 -11 -145 -21 -7 -8 -9
-17 -6 -20 8 -8 210 -6 255 2 l32 6 0 -48 c0 -27 -3 -65 -6 -85 l-6 -36 -137
-8 c-75 -5 -173 -9 -218 -10 -89 -1 -94 4 -43 50 48 43 100 114 95 128 -8 20
-155 -124 -155 -152 0 -22 -16 -23 -217 -25 -13 0 -23 -4 -23 -8 0 -4 52 -8
115 -8 113 0 115 0 115 -23 0 -39 57 -102 139 -155 29 -18 31 -22 11 -16 -49
12 -106 42 -213 107 -76 48 -117 67 -141 67 -18 0 -54 3 -80 6 l-47 7 24 26
c13 14 29 35 35 46 11 19 11 18 12 -7 0 -16 4 -28 9 -28 5 0 9 19 8 43 -1 40
0 42 31 45 31 3 32 2 32 -38 0 -25 -4 -39 -10 -35 -5 3 -10 19 -10 36 0 17 -5
29 -13 29 -9 0 -13 -12 -13 -35 1 -20 6 -35 13 -35 6 0 18 -3 27 -6 13 -5 16
2 16 45 l0 51 -45 0 c-28 0 -45 -4 -45 -12 0 -9 -3 -9 -12 0 -21 21 4 30 112
39 82 6 114 5 146 -6 38 -14 44 -13 90 10 60 30 93 87 95 167 l2 52 441 0
c264 -1 442 3 444 9 5 16 -299 24 -603 15 l-296 -9 -15 22 c-27 42 -91 68
-139 56z m96 -74 c34 -37 46 -88 30 -139 -13 -44 -62 -90 -96 -90 -34 0 -83
46 -96 91 -10 30 -9 48 0 80 27 91 105 119 162 58z m1151 19 c32 -27 48 -63
48 -113 0 -61 -25 -107 -70 -125 -41 -17 -73 -2 -107 49 -53 79 -7 201 77 201
20 0 43 -6 52 -12z m-339 -125 c4 -20 5 -38 4 -39 -1 0 -98 -4 -214 -8 l-213
-6 0 29 c0 16 -3 36 -6 45 -5 14 17 16 209 16 l214 0 6 -37z m607 -47 c0 -22
-142 -37 -155 -17 -6 10 28 18 100 24 22 2 43 4 48 5 4 1 7 -4 7 -12z m-602
-13 c-16 -2 -40 -2 -55 0 -16 2 -3 4 27 4 30 0 43 -2 28 -4z m-223 -10 c-96
-7 -205 -7 -205 0 0 4 55 6 123 5 67 -1 104 -3 82 -5z m-216 -7 c-11 -9 -270
-15 -264 -6 4 6 60 10 137 10 72 0 129 -2 127 -4z m-328 -43 c-5 -10 -24 -31
-41 -48 -39 -36 -90 -104 -90 -119 0 -10 286 -5 408 7 42 5 43 4 38 -22 -2
-14 -7 -44 -11 -66 -3 -22 -10 -64 -16 -94 l-11 -53 -91 4 c-73 4 -103 10
-147 32 -81 38 -128 82 -157 142 -30 63 -28 69 61 166 66 72 71 77 57 51z
m1273 -37 c-39 -44 -54 -54 -54 -36 0 14 79 94 86 87 4 -4 -11 -27 -32 -51z
m-570 -125 c3 -4 -7 -6 -22 -5 l-27 4 28 -13 c32 -15 26 -27 -16 -27 -22 0
-28 4 -23 16 3 9 6 20 6 25 0 11 47 12 54 0z m-70 -33 c13 -51 -143 -152 -253
-165 -53 -6 -54 -6 -48 18 3 13 11 52 17 86 l12 61 87 7 c47 3 95 7 106 9 57
9 73 6 79 -16z m36 -33 c-7 -9 -39 -35 -71 -59 -32 -24 -56 -46 -53 -49 7 -7
-42 -36 -86 -52 -21 -8 -72 -16 -112 -19 -92 -8 -78 0 24 13 73 8 186 50 160
59 -7 2 14 23 46 46 31 23 63 50 71 59 7 9 18 17 23 17 6 0 5 -7 -2 -15z"/>
<path d="M1137 2033 c-14 -13 -6 -41 13 -46 12 -3 20 -14 20 -27 0 -27 24 -21
28 7 2 14 -4 22 -17 26 -13 3 -21 13 -21 26 0 21 -10 27 -23 14z"/>
<path d="M1176 2024 c-4 -9 -4 -19 -1 -22 2 -3 7 3 11 12 4 9 4 19 1 22 -2 3
-7 -3 -11 -12z"/>
<path d="M1146 1964 c-4 -9 -4 -19 -1 -22 2 -3 7 3 11 12 4 9 4 19 1 22 -2 3
-7 -3 -11 -12z"/>
<path d="M2317 2033 c-13 -12 -7 -43 8 -43 12 0 13 -4 5 -19 -15 -29 -12 -39
5 -17 13 17 15 18 15 3 0 -9 7 -17 15 -17 9 0 15 9 15 25 0 17 -6 25 -17 25
-13 0 -14 3 -5 12 7 7 12 19 12 27 0 11 -4 10 -15 -5 -13 -17 -14 -17 -15 -1
0 17 -11 22 -23 10z"/>
<path d="M1373 1653 c-51 -3 -63 -7 -63 -21 -1 -16 -1 -16 -11 1 -11 18 -59
23 -117 11 -30 -6 -31 -7 -18 -33 22 -41 126 -128 126 -104 0 4 -16 17 -36 28
-36 19 -84 68 -84 86 0 5 25 9 55 9 l55 0 0 -51 c0 -46 2 -50 16 -38 14 12 16
10 12 -16 -4 -40 33 -57 138 -63 l82 -4 6 28 c3 16 6 61 8 99 l3 70 -55 1
c-30 0 -83 -1 -117 -3z m152 -111 l-7 -74 -76 4 c-112 7 -122 14 -122 93 l0
63 63 6 c163 16 153 23 142 -92z m-218 31 c-3 -10 -5 -4 -5 12 0 17 2 24 5 18
2 -7 2 -21 0 -30z"/>
<path d="M2910 1870 c0 -139 3 -251 6 -248 7 7 6 489 -1 496 -3 3 -5 -109 -5
-248z"/>
<path d="M880 2033 c-58 -12 -123 -24 -145 -26 l-40 -3 -16 -64 c-13 -54 -14
-68 -3 -85 7 -11 18 -19 25 -17 7 2 70 7 140 12 71 4 133 11 139 15 29 18 -14
25 -150 25 -144 0 -148 1 -143 20 7 28 12 30 121 46 53 7 112 16 130 19 28 5
32 3 33 -17 1 -13 5 4 9 37 5 33 7 60 7 61 -1 0 -49 -10 -107 -23z m75 -13
c-11 -5 -33 -8 -50 -8 l-30 0 30 8 c17 4 39 8 50 8 20 1 20 1 0 -8z m-92 -17
c-7 -2 -19 -2 -25 0 -7 3 -2 5 12 5 14 0 19 -2 13 -5z m106 -7 c-8 -8 -269
-42 -269 -35 0 4 39 12 88 19 48 7 107 16 132 19 43 7 58 6 49 -3z m-59 -126
c-100 -12 -220 -11 -220 0 0 6 53 9 143 8 118 -1 131 -2 77 -8z"/>
<path d="M1358 2033 c6 -2 18 -2 25 0 6 3 1 5 -13 5 -14 0 -19 -2 -12 -5z"/>
<path d="M1505 2030 l-90 -6 75 -1 c41 0 122 3 180 7 l105 7 -90 -1 c-49 0
-130 -3 -180 -6z"/>
<path d="M79 1888 c-1 -302 2 -602 6 -607 3 -2 5 161 5 362 0 202 -2 367 -5
367 -3 0 -5 -55 -6 -122z"/>
<path d="M410 1830 l0 -100 50 0 c40 0 50 3 50 16 0 14 -7 16 -40 11 l-40 -5
0 89 c0 53 -4 89 -10 89 -6 0 -10 -40 -10 -100z"/>
<path d="M1275 1900 c-3 -5 -2 -10 4 -10 5 0 13 5 16 10 3 6 2 10 -4 10 -5 0
-13 -4 -16 -10z"/>
<path d="M2094 1849 c-3 -6 -1 -15 6 -19 9 -5 9 -9 1 -14 -6 -4 -11 -2 -11 5
0 10 -3 10 -12 1 -14 -14 -9 -21 18 -24 21 -3 24 1 24 37 0 26 -14 33 -26 14z"/>
<path d="M1774 1839 c-5 -9 -2 -10 9 -6 10 3 17 2 17 -3 0 -6 -6 -10 -12 -10
-8 0 -5 -7 6 -15 19 -15 19 -15 -4 -15 -18 0 -21 -3 -13 -11 21 -21 43 -2 40
33 -3 34 -28 50 -43 27z"/>
<path d="M1385 1820 c-3 -5 1 -10 9 -10 20 0 20 -14 1 -30 -23 -19 -18 -30 13
-29 16 1 20 3 10 6 -14 3 -15 8 -6 22 12 20 5 51 -11 51 -5 0 -13 -4 -16 -10z"/>
<path d="M1610 1739 c0 -20 84 -18 88 3 2 10 -9 13 -43 13 -34 0 -45 -4 -45
-16z"/>
<path d="M1213 1715 c5 -16 97 -19 97 -3 0 9 -16 13 -50 13 -29 0 -49 -4 -47
-10z"/>
<path d="M2910 1525 c0 -49 3 -86 6 -83 7 8 7 159 -1 166 -3 3 -5 -34 -5 -83z"/>
<path d="M367 1501 c-37 -10 -75 -25 -84 -34 -16 -15 -15 -18 5 -40 22 -23 22
-26 22 -394 0 -367 0 -371 -21 -385 -20 -13 -20 -15 -6 -30 18 -17 138 -43
161 -35 8 3 16 16 18 29 2 19 11 24 47 29 51 7 75 31 92 91 12 46 15 452 4
570 -10 111 -46 158 -120 158 -17 0 -26 8 -34 30 -5 17 -11 30 -13 29 -2 0
-34 -8 -71 -18z m68 -448 c0 -229 3 -403 6 -387 4 16 7 61 8 99 1 57 4 66 13
51 16 -28 10 -157 -8 -177 -8 -8 -14 -21 -14 -27 0 -16 -20 -15 -21 1 0 6 0
42 1 79 1 37 -3 69 -9 73 -8 4 -11 -21 -11 -78 l0 -84 -32 7 c-21 4 -32 12
-29 21 2 8 7 26 11 41 5 16 5 30 -1 33 -5 4 -9 -3 -9 -14 0 -28 -21 -72 -31
-65 -5 3 -1 16 8 30 14 22 17 66 21 283 6 318 -3 466 -28 491 -13 13 -15 21
-7 29 8 8 16 0 29 -31 9 -24 17 -35 17 -26 1 9 -4 29 -11 43 -13 29 -12 31 25
40 l27 7 0 -283 c0 -155 2 -280 5 -278 2 3 5 133 5 289 1 266 2 282 18 266 15
-15 17 -55 17 -433z m67 325 c3 -51 0 -62 -19 -80 -13 -12 -23 -26 -23 -32 0
-5 15 4 33 21 34 32 77 63 88 63 4 0 10 -63 14 -141 6 -130 6 -141 -12 -154
-17 -13 -17 -14 0 -20 14 -6 17 -20 16 -89 -1 -44 -4 -112 -8 -150 l-6 -68
-65 59 -65 60 -2 300 -3 300 24 -4 c22 -5 25 -11 28 -65z m20 -8 c-7 -56 -12
-48 -11 16 0 39 3 52 8 39 5 -11 6 -36 3 -55z m30 25 c2 -21 -1 -40 -9 -46 -9
-9 -12 -1 -10 35 2 54 13 60 19 11z m-48 -628 c0 -9 -1 -37 -2 -62 -3 -71 -22
-53 -22 21 0 48 3 65 13 62 6 -3 12 -12 11 -21z m26 -57 c0 -27 -4 -50 -10
-50 -11 0 -14 83 -3 93 12 12 13 8 13 -43z m30 0 c0 -16 -4 -32 -10 -35 -6 -4
-10 10 -10 35 0 25 4 39 10 35 6 -3 10 -19 10 -35z"/>
<path d="M410 1175 c0 -162 -4 -295 -8 -295 -4 0 -6 -16 -4 -35 2 -19 8 -35
12 -35 5 0 9 149 10 330 0 182 -2 330 -5 330 -3 0 -5 -133 -5 -295z"/>
<path d="M354 1096 c1 -156 4 -282 9 -279 10 6 9 563 -2 563 -4 0 -8 -128 -7
-284z"/>
<path d="M356 784 c-10 -25 -7 -54 5 -54 7 0 9 9 5 24 -4 18 -2 23 11 22 8 0
18 5 20 12 7 18 -34 15 -41 -4z"/>
<path d="M473 1370 c0 -36 2 -50 4 -32 2 17 2 47 0 65 -2 17 -4 3 -4 -33z"/>
<path d="M496 1209 c-24 -28 -26 -38 -26 -122 0 -152 8 -194 42 -218 51 -37
57 -20 57 164 0 89 -3 172 -6 185 -7 31 -36 28 -67 -9z m47 -29 c-1 -14 -2
-38 -2 -55 2 -172 -5 -216 -33 -199 -4 3 -8 59 -8 124 0 105 2 119 18 123 9 2
7 3 -5 2 -26 -2 -29 5 -11 23 20 20 43 9 41 -18z m-56 -117 c-2 -21 -4 -6 -4
32 0 39 2 55 4 38 2 -18 2 -50 0 -70z m63 -159 c0 -20 -17 -26 -40 -14 -28 15
-25 25 10 26 18 1 30 -4 30 -12z"/>
<path d="M952 1506 c-23 -8 -79 -17 -125 -21 -89 -8 -160 -32 -175 -62 -6 -10
-13 -52 -16 -93 -4 -63 -4 -68 4 -32 6 23 13 61 18 84 10 58 42 75 173 89 57
6 112 15 121 20 22 12 108 12 108 0 0 -10 -92 -27 -201 -37 -83 -7 -110 -17
-94 -33 6 -6 25 -7 50 -1 22 4 86 11 141 15 l101 6 44 -30 c73 -51 149 -65
349 -65 148 0 189 3 263 22 105 26 237 79 253 101 10 14 35 15 195 10 101 -3
200 -10 219 -14 29 -6 33 -5 23 6 -9 9 -58 14 -164 17 -93 3 -146 8 -138 13
17 11 239 2 296 -13 38 -9 41 -12 27 -26 -13 -12 -50 -15 -227 -14 l-211 1
-60 -29 c-152 -75 -448 -115 -678 -92 -125 13 -288 45 -322 63 -12 7 -51 8
-108 4 -103 -8 -125 -22 -154 -96 -26 -63 -33 -419 -9 -455 8 -13 15 -34 15
-48 0 -13 11 -38 25 -54 22 -26 35 -31 88 -37 119 -12 162 -11 219 2 85 19
282 43 341 42 49 -2 47 -2 -20 -9 -107 -12 -166 -28 -219 -61 l-47 -30 -121
11 c-66 6 -131 12 -143 13 -37 3 -31 -17 7 -25 97 -19 175 -26 178 -18 2 6 21
10 42 10 29 0 39 -4 43 -19 7 -27 0 -31 -52 -30 l-46 2 39 6 c50 8 61 31 14
30 -31 -1 -31 -1 -8 -9 23 -7 23 -8 -10 -11 -19 -1 -42 -1 -50 0 -8 2 -58 8
-110 16 -108 14 -166 35 -174 62 -3 10 -10 49 -16 88 -6 38 -14 72 -17 75 -10
9 9 -134 22 -166 16 -38 75 -64 160 -71 33 -2 95 -14 137 -25 94 -26 125 -18
130 33 2 28 10 37 48 56 114 59 413 77 581 35 105 -26 237 -77 265 -103 17
-16 29 -18 63 -13 27 4 51 2 66 -6 17 -9 57 -11 147 -7 132 6 187 19 215 50
17 18 17 19 -7 16 -22 -4 -25 -1 -23 25 1 17 16 43 35 63 22 23 32 42 30 57
-2 13 7 43 19 66 18 34 24 65 27 150 3 60 -1 129 -7 160 -13 60 -7 75 18 43
22 -27 33 -149 22 -250 -7 -56 -14 -77 -35 -100 -33 -35 -41 -60 -26 -79 10
-11 8 -19 -14 -40 -32 -33 -35 -77 -5 -97 11 -8 29 -13 40 -10 15 4 19 0 19
-20 0 -29 23 -41 50 -27 11 6 40 11 65 12 63 3 80 23 65 75 -8 26 -11 154 -8
420 3 419 7 393 -58 393 -19 0 -50 6 -69 14 -37 16 -39 15 -48 -25 -6 -21 -11
-25 -31 -22 -18 4 -29 -2 -41 -20 -15 -23 -15 -28 -1 -56 9 -16 24 -34 33 -40
15 -8 16 -12 6 -22 -7 -7 -13 -22 -14 -33 0 -21 0 -21 -8 -1 -5 11 -6 26 -4
32 3 7 -11 31 -31 55 -42 49 -47 85 -13 90 22 3 21 4 -6 22 -34 23 -172 39
-281 32 -45 -2 -103 -5 -129 -5 -39 0 -55 -6 -81 -29 -42 -37 -181 -88 -293
-107 -160 -28 -419 -15 -515 27 -56 24 -68 37 -77 81 -6 28 -11 32 -41 34 -19
1 -54 -4 -78 -11z m1638 -58 c0 -51 -1 -52 -14 -27 -7 15 -11 39 -9 53 9 45
23 28 23 -26z m39 -115 c-1 -166 -12 -149 -23 35 -6 97 -5 112 8 112 14 0 16
-20 15 -147z m58 102 c1 -22 0 -34 -3 -27 -3 6 -12 12 -20 12 -18 0 -20 -101
-3 -133 9 -15 9 -22 1 -25 -8 -2 -6 -12 6 -30 14 -22 17 -51 17 -177 0 -150
-7 -205 -25 -205 -13 0 -13 77 0 85 14 9 13 222 -1 227 -7 2 -13 63 -16 162
l-6 158 24 -4 c19 -2 24 -10 26 -43z m38 8 c-8 -32 -8 -734 0 -777 4 -21 2
-36 -5 -41 -16 -10 -17 -8 -23 75 -4 47 -3 64 2 45 8 -28 9 -28 10 13 1 28 -5
49 -15 60 -15 15 -18 14 -30 -3 -20 -26 -19 -145 0 -145 8 0 17 6 19 13 3 6 6
-5 6 -25 1 -21 -3 -38 -8 -38 -5 0 -16 -3 -25 -6 -14 -5 -16 8 -16 111 0 64 4
114 9 111 4 -3 16 3 26 14 36 39 42 297 10 377 -10 24 -11 33 -2 37 9 3 8 7
-2 14 -9 7 -16 34 -19 74 -5 77 11 69 18 -9 3 -31 10 -58 15 -60 6 -2 9 33 7
97 -4 90 -2 99 13 94 12 -5 15 -14 10 -31z m-1665 17 c0 -5 -21 -9 -47 -9
l-48 2 40 7 c22 4 43 8 48 9 4 0 7 -3 7 -9z m-113 -16 c-3 -3 -12 -4 -19 -1
-8 3 -5 6 6 6 11 1 17 -2 13 -5z m1623 -34 c11 -21 -2 -70 -20 -70 -18 0 -60
48 -60 69 0 44 57 45 80 1z m-155 4 c6 -10 22 -32 38 -49 15 -18 27 -43 27
-56 1 -30 21 -57 38 -52 17 6 15 -8 -4 -21 -12 -9 -13 -17 -4 -40 15 -40 20
-179 8 -251 -5 -33 -10 -67 -10 -75 -1 -8 -7 -25 -14 -38 -7 -14 -10 -31 -7
-38 3 -8 -10 -31 -30 -53 -19 -21 -36 -44 -39 -52 -4 -11 -39 -14 -174 -16
-138 -1 -159 1 -114 9 184 33 316 61 325 69 12 12 8 12 -87 -11 -46 -11 -90
-19 -98 -19 -15 1 0 5 132 41 43 11 76 24 73 28 -2 4 -54 -8 -115 -26 -61 -19
-119 -34 -128 -35 -11 -1 -8 -4 8 -10 22 -8 21 -8 -8 -4 -18 3 -71 -4 -118
-15 -47 -11 -97 -20 -112 -20 -19 0 -23 -3 -14 -9 19 -11 110 -16 281 -14 115
1 147 -2 159 -13 8 -8 13 -16 11 -18 -18 -14 -119 -26 -216 -25 l-118 2 139 9
c76 4 146 13 155 18 11 8 -3 9 -49 6 -36 -3 -131 -8 -212 -12 -121 -5 -150 -3
-168 9 -15 10 -18 17 -10 22 9 6 9 10 -1 16 -11 7 -11 9 -1 9 7 0 23 21 34 48
19 40 23 74 29 247 3 110 3 227 -2 260 -10 72 -33 142 -56 167 -14 16 -14 18
2 24 10 4 57 -1 104 -11 47 -11 102 -18 121 -18 25 1 31 -1 20 -8 -11 -7 -5
-9 20 -6 19 2 26 2 15 -1 -12 -3 24 -16 89 -33 60 -16 111 -27 114 -24 6 5 1
7 -98 33 -41 11 -66 21 -55 21 11 0 45 -6 75 -14 65 -17 78 -19 65 -6 -11 11
-171 44 -292 61 -46 7 -83 15 -83 18 0 3 78 2 173 -1 146 -6 174 -9 182 -23z
m-441 -54 c29 -74 39 -177 33 -375 -5 -193 -14 -247 -45 -284 l-17 -21 -80 26
c-110 35 -119 46 -106 119 6 32 11 77 11 100 0 35 4 44 25 53 22 10 25 18 25
62 0 43 -3 52 -22 59 -20 7 -24 20 -35 107 -10 80 -10 101 1 112 10 11 167 79
187 81 4 1 14 -17 23 -39z m-1088 -17 c-27 -53 -45 -147 -50 -265 -6 -128 7
-220 45 -309 12 -27 19 -52 17 -55 -10 -9 -171 15 -179 27 -13 21 -30 185 -31
299 -1 125 18 291 36 315 12 15 168 36 174 23 2 -4 -3 -20 -12 -35z m149 1
c148 -34 415 -44 585 -20 63 8 126 19 140 22 l25 8 -28 -25 -27 -24 16 -115
c10 -77 13 -145 9 -205 -6 -85 -27 -221 -36 -229 -2 -2 -31 1 -64 7 -33 6
-153 11 -267 11 l-207 1 -8 65 c-10 85 -10 319 0 393 l9 58 156 -7 c179 -7
417 17 391 40 -2 2 -44 -3 -94 -11 -58 -9 -155 -13 -274 -11 l-185 2 -9 -29
c-11 -35 -15 -366 -5 -445 l6 -55 -14 55 c-29 114 -28 298 1 445 l7 31 -109
21 c-75 15 -112 18 -121 11 -20 -17 -51 -136 -61 -232 -10 -101 -1 -192 28
-286 32 -104 29 -102 141 -79 172 34 447 35 653 2 32 -5 37 -3 37 13 0 16 3
15 23 -8 12 -14 39 -31 60 -38 21 -7 37 -14 35 -16 -2 -2 -26 3 -53 12 -202
61 -543 67 -782 15 l-83 -18 -20 42 c-11 23 -30 79 -41 126 -34 134 -19 335
34 462 9 20 17 37 19 37 2 0 53 -12 113 -26z m1564 -29 c0 -28 -1 -28 -9 -7
-5 12 -14 22 -20 22 -6 0 -6 7 2 20 15 24 28 8 27 -35z m-1524 -10 c39 -7 69
-17 68 -22 -27 -132 -30 -304 -8 -420 8 -43 15 -81 15 -84 0 -3 -46 -14 -101
-24 -117 -20 -108 -25 -140 75 -40 125 -35 321 13 447 19 53 21 54 51 47 18
-4 64 -12 102 -19z m1503 -18 c3 -23 0 -27 -23 -27 -30 0 -43 24 -25 46 19 22
45 13 48 -19z m-1897 -77 c-6 -65 -9 -73 -10 -35 -1 49 9 129 15 122 2 -1 -1
-41 -5 -87z m1924 8 c4 -26 11 -38 22 -38 13 0 14 -3 5 -12 -16 -16 -16 -220
0 -236 9 -9 8 -12 -5 -12 -14 0 -17 -10 -17 -51 l0 -51 -24 23 c-19 19 -21 25
-11 36 18 18 29 149 21 247 -5 63 -12 86 -29 104 -12 13 -17 23 -12 22 23 -5
35 1 36 18 1 19 4 10 14 -50z m53 -170 c-2 -70 -7 -103 -15 -106 -10 -3 -13
22 -13 102 0 89 3 106 15 106 13 0 15 -16 13 -102z m-853 -7 c0 -64 -22 -64
-27 -1 -2 41 0 50 12 48 11 -2 15 -16 15 -47z m-1123 -146 c3 -55 2 -86 -2
-70 -8 31 -13 182 -6 174 2 -2 5 -49 8 -104z m1931 -282 c-24 -18 -32 -16 -42
10 -6 14 -4 29 5 42 19 26 18 70 -2 86 -14 11 -14 13 0 21 9 5 16 14 16 20 0
9 -3 9 -12 0 -16 -16 -45 -15 -51 2 -6 15 19 56 33 56 5 0 17 -14 26 -32 13
-26 15 -50 11 -122 -3 -54 -2 -81 3 -66 4 14 8 48 9 76 1 28 4 87 9 130 7 75
7 71 10 -66 2 -127 1 -146 -15 -157z m58 80 c-8 -14 -10 -6 -11 34 0 73 14
102 18 36 2 -29 -2 -61 -7 -70z m-95 31 c4 -15 0 -34 -10 -49 -35 -53 -91 -13
-62 44 25 47 61 49 72 5z m-636 -66 c0 -11 -5 -10 -45 6 -47 20 -44 26 5 13
22 -6 40 -15 40 -19z m-973 -14 c-3 -3 -12 -4 -19 -1 -8 3 -5 6 6 6 11 1 17
-2 13 -5z"/>
<path d="M1984 1413 c4 -4 102 -32 219 -61 271 -68 264 -67 252 -54 -8 9 -446
122 -470 122 -5 0 -5 -3 -1 -7z"/>
<path d="M2000 1385 c1 -17 39 -140 39 -128 2 20 -22 118 -31 128 -5 6 -8 6
-8 0z"/>
<path d="M2046 1300 c4 -19 11 -44 15 -55 6 -14 7 -9 3 15 -4 19 -11 44 -15
55 -6 14 -7 9 -3 -15z"/>
<path d="M2087 1324 c-4 -4 -7 -19 -6 -33 l1 -26 7 25 c14 49 33 -59 38 -220
5 -160 -7 -260 -29 -229 -7 10 -8 8 -3 -8 4 -15 2 -23 -6 -23 -9 0 -8 -5 4
-17 15 -15 19 -15 31 -3 8 8 17 29 20 45 6 30 5 30 -6 -2 -18 -53 -26 -38 -9
16 11 34 18 44 22 33 12 -32 22 99 15 201 -9 131 -25 215 -37 196 -7 -10 -9
-5 -7 16 3 29 -18 46 -35 29z m50 -96 c-3 -7 -5 -2 -5 12 0 14 2 19 5 13 2 -7
2 -19 0 -25z m10 -55 c-3 -10 -5 -4 -5 12 0 17 2 24 5 18 2 -7 2 -21 0 -30z
m10 -215 c-2 -18 -4 -6 -4 27 0 33 2 48 4 33 2 -15 2 -42 0 -60z"/>
<path d="M2091 1244 c0 -11 3 -14 6 -6 3 7 2 16 -1 19 -3 4 -6 -2 -5 -13z"/>
<path d="M2046 1205 c3 -22 11 -49 18 -60 18 -29 21 -95 4 -95 -9 0 -10 -2 -1
-8 6 -4 14 -23 16 -42 3 -19 3 8 1 60 -3 52 -5 111 -6 130 0 20 -3 27 -6 15
-4 -17 -6 -15 -18 10 l-14 30 6 -40z"/>
<path d="M2102 1195 c0 -16 2 -22 5 -12 2 9 2 23 0 30 -3 6 -5 -1 -5 -18z"/>
<path d="M2308 1183 c12 -2 30 -2 40 0 9 3 -1 5 -23 4 -22 0 -30 -2 -17 -4z"/>
<path d="M2112 1044 c-1 -67 -4 -137 -7 -155 l-5 -34 10 33 c6 18 9 87 7 155
l-3 122 -2 -121z"/>
<path d="M2303 1143 c9 -2 25 -2 35 0 9 3 1 5 -18 5 -19 0 -27 -2 -17 -5z"/>
<path d="M2038 994 c-3 -212 -3 -217 -17 -242 -16 -29 -10 -36 13 -19 17 12
18 31 17 202 -1 104 -4 191 -6 194 -3 2 -6 -58 -7 -135z"/>
<path d="M2280 1065 l0 -56 68 3 67 3 0 50 0 50 -67 3 -68 3 0 -56z m116 36
c16 -2 10 -74 -6 -79 -7 -3 -10 0 -6 7 4 6 2 11 -3 11 -8 0 -7 7 1 20 16 26
-4 52 -24 31 -7 -7 -8 -12 -3 -11 24 5 27 -1 9 -21 -16 -17 -16 -22 -4 -29 12
-8 9 -10 -10 -10 -22 0 -25 4 -25 35 0 19 -4 34 -10 32 -5 -1 -8 -10 -7 -19 2
-10 -1 -26 -7 -35 -8 -15 -10 -10 -11 24 0 23 5 43 10 45 10 3 71 3 96 -1z"/>
<path d="M2480 1056 c0 -9 7 -16 16 -16 9 0 14 5 12 12 -6 18 -28 21 -28 4z"/>
<path d="M2073 907 c-1 -39 1 -46 7 -27 11 33 12 80 3 80 -5 0 -9 -24 -10 -53z"/>
<path d="M2400 804 c-69 -23 -308 -82 -357 -90 -24 -3 -46 -10 -49 -15 -8 -13
-3 -12 157 25 172 40 290 74 304 87 12 12 0 10 -55 -7z"/>
<path d="M700 1060 l0 -50 60 0 c33 0 60 4 60 10 0 5 -8 7 -17 3 -16 -6 -16
-4 2 16 15 18 17 26 7 41 -9 14 -8 20 1 23 7 3 -16 6 -50 6 l-63 1 0 -50z m28
14 c1 -14 -2 -33 -8 -42 -7 -13 -9 -7 -10 26 0 45 14 59 18 16z m60 14 c15
-15 16 -48 2 -48 -10 0 -14 14 -11 38 1 6 -3 12 -9 12 -14 0 -13 -43 2 -58 9
-9 8 -12 -4 -12 -18 0 -28 20 -28 56 0 26 27 33 48 12z"/>
<path d="M1415 1080 c-3 -5 -1 -10 6 -10 7 0 9 -10 7 -25 -4 -19 -1 -25 11
-25 13 0 16 7 13 35 -4 34 -23 47 -37 25z"/>
<path d="M1470 1081 c0 -5 6 -11 13 -14 9 -3 9 -9 -1 -26 -11 -18 -10 -21 6
-21 15 0 17 6 14 35 -3 21 -10 35 -18 35 -8 0 -14 -4 -14 -9z"/>
<path d="M2910 1355 c0 -43 2 -76 5 -73 7 7 8 138 1 145 -3 3 -6 -29 -6 -72z"/>
<path d="M2910 1195 c0 -43 3 -75 7 -72 7 7 5 139 -3 146 -2 2 -4 -31 -4 -74z"/>
<path d="M122 1058 l3 -53 40 0 40 0 3 53 3 52 -46 0 -46 0 3 -52z m30 17 c-3
-19 0 -25 12 -25 10 0 14 -4 11 -10 -3 -5 -2 -10 4 -10 5 0 12 6 14 13 3 7 6
5 6 -5 1 -20 -24 -24 -35 -7 -4 8 -9 7 -15 -2 -6 -10 -9 -8 -10 9 -1 12 -2 28
-3 35 -3 15 3 27 13 27 5 0 6 -11 3 -25z m48 15 c0 -5 -2 -10 -4 -10 -3 0 -8
5 -11 10 -3 6 -1 10 4 10 6 0 11 -4 11 -10z m-20 -20 c0 -5 -4 -10 -10 -10 -5
0 -10 5 -10 10 0 6 5 10 10 10 6 0 10 -4 10 -10z"/>
<path d="M2855 1100 c-3 -5 1 -10 11 -10 13 0 14 -3 4 -15 -9 -10 -9 -15 -1
-15 6 0 11 -4 11 -8 0 -4 -9 -8 -20 -8 -15 0 -20 7 -20 28 0 21 -5 28 -20 28
-17 0 -19 -3 -8 -19 9 -15 9 -23 -1 -35 -12 -15 -9 -16 35 -14 47 3 49 4 50
33 1 37 -26 60 -41 35z"/>
<path d="M2914 660 c0 -113 2 -159 3 -102 2 56 2 148 0 205 -1 56 -3 10 -3
-103z"/>
<path d="M78 643 c-2 -71 -1 -191 2 -268 5 -114 6 -91 8 128 1 147 0 267 -2
267 -3 0 -6 -57 -8 -127z"/>
<path d="M2910 320 c0 -73 2 -131 5 -128 8 8 10 246 2 254 -4 4 -7 -53 -7
-126z"/>
<path d="M390 295 c0 -78 3 -95 15 -95 11 0 15 12 15 45 0 65 35 61 63 -7 9
-21 21 -38 26 -38 16 0 13 16 -9 59 -17 34 -18 41 -5 51 18 15 20 51 3 68 -7
7 -34 12 -60 12 l-48 0 0 -95z m85 45 c0 -20 -6 -26 -27 -28 -25 -3 -28 0 -28
28 0 28 3 31 28 28 21 -2 27 -8 27 -28z"/>
<path d="M2913 110 c0 -41 2 -58 4 -38 2 21 2 55 0 76 -2 20 -4 3 -4 -38z"/>
<path d="M880 365 l0 -55 44 0 c52 0 63 10 36 35 -11 10 -17 22 -14 27 4 6 10
5 15 -3 4 -7 11 -10 15 -6 12 12 -10 28 -41 30 -25 2 -29 -1 -29 -28 0 -26 4
-30 27 -30 15 1 27 -3 27 -7 0 -4 -16 -8 -36 -8 l-35 0 3 43 c3 42 3 42 41 41
20 -1 37 3 37 7 0 5 -20 9 -45 9 l-45 0 0 -55z m60 15 c0 -5 -4 -10 -10 -10
-5 0 -10 5 -10 10 0 6 5 10 10 10 6 0 10 -4 10 -10z m0 -30 c0 -5 -4 -10 -10
-10 -5 0 -10 5 -10 10 0 6 5 10 10 10 6 0 10 -4 10 -10z"/>
<path d="M2104 359 c-4 -7 4 -20 17 -30 l24 -19 -24 0 c-19 0 -22 -3 -14 -11
16 -16 43 -3 43 21 0 12 -7 20 -17 20 -16 1 -16 2 1 15 19 15 19 15 -1 15 -12
0 -25 -5 -29 -11z"/>
<path d="M2050 226 c0 -21 17 -29 46 -22 38 10 30 36 -11 36 -24 0 -35 -5 -35
-14z"/>
<path d="M1616 89 c3 -5 67 -9 142 -8 75 0 133 2 127 4 -24 8 -274 12 -269 4z"/>
<path d="M1392 83 c37 -2 100 -2 140 0 40 1 10 3 -67 3 -77 0 -110 -1 -73 -3z"/>
<path d="M1296 62 c-3 -3 -6 -9 -6 -14 0 -4 198 -8 440 -8 390 0 440 2 440 15
0 14 -48 16 -434 14 -239 0 -437 -4 -440 -7z"/>
<path d="M1232 393 c4 -22 62 -30 84 -13 22 19 7 30 -42 30 -38 0 -45 -3 -42
-17z m78 -5 c0 -5 -16 -8 -35 -8 -19 0 -35 3 -35 8 0 4 16 7 35 7 19 0 35 -3
35 -7z"/>
<path d="M1598 329 c-1 -34 0 -63 5 -66 4 -2 7 21 7 53 l0 57 45 -5 c34 -4 45
-2 45 8 0 10 -14 14 -49 14 l-49 0 -4 -61z"/>
<path d="M1372 328 l3 -53 45 0 45 0 3 53 3 52 -51 0 -51 0 3 -52z m44 27 c11
-11 12 -19 4 -34 -12 -23 -13 -31 -2 -31 4 0 13 14 20 32 9 25 9 34 -1 40 -9
6 -9 8 0 8 18 0 23 -14 16 -53 -5 -32 -9 -37 -33 -37 -25 0 -28 4 -32 41 -5
52 2 61 28 34z"/>
<path d="M1493 325 c0 -22 2 -30 4 -17 2 12 2 30 0 40 -3 9 -5 -1 -4 -23z"/>
<path d="M1782 348 c-7 -7 -12 -25 -12 -40 0 -21 5 -28 20 -28 11 0 23 7 27
16 6 17 -15 36 -31 27 -5 -3 -6 -1 -2 5 4 7 14 12 22 12 8 0 12 5 9 10 -8 13
-18 13 -33 -2z m18 -48 c0 -5 -2 -10 -4 -10 -3 0 -8 5 -11 10 -3 6 -1 10 4 10
6 0 11 -4 11 -10z"/>
<path d="M1532 310 c0 -14 2 -19 5 -12 2 6 2 18 0 25 -3 6 -5 1 -5 -13z"/>
<path d="M1341 304 c0 -11 3 -14 6 -6 3 7 2 16 -1 19 -3 4 -6 -2 -5 -13z"/>
<path d="M1166 165 c-7 -18 2 -45 15 -45 6 0 5 -8 -1 -19 -15 -29 -12 -39 5
-17 8 11 15 14 15 8 0 -7 8 -12 18 -11 10 0 12 3 5 6 -7 2 -13 9 -13 14 0 6 5
7 10 4 6 -3 10 1 10 9 0 9 -5 16 -10 16 -7 0 -7 6 0 20 7 14 7 20 0 20 -5 0
-10 -5 -10 -11 0 -5 -4 -8 -9 -5 -5 4 -12 0 -15 -6 -3 -7 -3 -3 0 10 6 24 -10
31 -20 7z"/>
<path d="M2337 174 c-4 -4 -7 -18 -7 -32 0 -18 4 -23 16 -18 15 6 15 4 0 -18
-19 -29 -20 -36 -6 -36 6 0 10 7 10 16 0 9 9 18 20 21 11 3 20 10 20 15 0 5
-4 6 -10 3 -13 -8 -13 1 0 26 7 13 7 19 0 19 -5 0 -10 -8 -10 -17 -1 -15 -3
-13 -13 5 -7 12 -16 19 -20 16z"/>
<path d="M2370 79 c0 -5 5 -7 10 -4 6 3 10 8 10 11 0 2 -4 4 -10 4 -5 0 -10
-5 -10 -11z"/>
</g>
</svg>
