<svg xmlns:x="http://ns.adobe.com/Extensibility/1.0/" xmlns:i="http://ns.adobe.com/AdobeIllustrator/10.0/" xmlns:graph="http://ns.adobe.com/Graphs/1.0/" xmlns="http://www.w3.org/2000/svg" xmlns:xlink="http://www.w3.org/1999/xlink" version="1.1" x="0px" y="0px" viewBox="0 0 100 125" enable-background="new 0 0 100 100" xml:space="preserve"><metadata><sfw xmlns="http://ns.adobe.com/SaveForWeb/1.0/">
<slices/>
<sliceSourceBounds width="1447.2" height="1444.2" x="1" y="-1446.1" bottomLeftOrigin="true"/>
</sfw>
</metadata>
<path fill="#ccc" d="M12.6,92.2V81C6.8,80.7,2.2,75.9,2.2,70V23.5c0-6.1,4.9-11,11-11h44.2c1.4,0,2.5,1.1,2.5,2.5s-1.1,2.5-2.5,2.5H13.2  c-3.3,0-6,2.7-6,6V70c0,3.3,2.7,6,6,6h1.9c1.4,0,2.5,1.1,2.5,2.5v10.7l12.4-12.4c0.5-0.5,1.1-0.7,1.8-0.7h46.5c3.3,0,6-2.7,6-6V44.9  c0-1.4,1.1-2.5,2.5-2.5s2.5,1.1,2.5,2.5V70c0,6.1-4.9,11-11,11H32.9L19,94.9c-0.7,0.7-1.7,1.1-2.6,1.1c-0.5,0-1-0.1-1.4-0.3  C13.5,95.1,12.6,93.7,12.6,92.2z M80.8,4c-1.4,0-2.5,1.1-2.5,2.5v12h-12c-1.4,0-2.5,1.1-2.5,2.5s1.1,2.5,2.5,2.5h12v12  c0,1.4,1.1,2.5,2.5,2.5s2.5-1.1,2.5-2.5v-12h12c1.4,0,2.5-1.1,2.5-2.5s-1.1-2.5-2.5-2.5h-12v-12C83.3,5.2,82.2,4,80.8,4z"/>
</svg>